<svg xmlns="http://www.w3.org/2000/svg" xmlns:xlink="http://www.w3.org/1999/xlink" xmlns:lucid="lucid" width="1755.15" height="865.55"><g transform="translate(1140 -139.7777068241778)" lucid:page-tab-id="0_0"><path d="M-1500 0h2500v1500h-2500z" fill="#fff"/><path d="M-329.96 170.78a30 30 0 0 1 30-30h260a30 30 0 0 1 30 30V290a30 30 0 0 1-30 30h-260a30 30 0 0 1-30-30zM-329.96 540a20 20 0 0 1 20-20h280a20 20 0 0 1 20 20 20 20 0 0 1-20 20h-280a20 20 0 0 1-20-20z" stroke="#000" stroke-width="2" fill-opacity="0"/><use xlink:href="#a" transform="matrix(1,0,0,1,-301.9619774924114,528) translate(74.69205729166667 21.58376736111111)"/><path d="M-860 713.1a30 30 0 0 1 30-30h260a30 30 0 0 1 30 30v213.8a30 30 0 0 1-30 30h-260a30 30 0 0 1-30-30z" stroke="#000" stroke-width="2" fill-opacity="0"/><use xlink:href="#b" transform="matrix(1,0,0,1,-822,691.1019791666666) translate(7.681423611111086 17.529513888888893)"/><use xlink:href="#c" transform="matrix(1,0,0,1,-822,691.1019791666666) translate(101.8828125 17.529513888888893)"/><use xlink:href="#d" transform="matrix(1,0,0,1,-822,691.1019791666666) translate(161.76128472222223 17.529513888888893)"/><use xlink:href="#e" transform="matrix(1,0,0,1,-822,691.1019791666666) translate(3.8888888888888893 43.342013888888886)"/><use xlink:href="#f" transform="matrix(1,0,0,1,-822,691.1019791666666) translate(17.77777777777778 43.342013888888886)"/><use xlink:href="#g" transform="matrix(1,0,0,1,-822,691.1019791666666) translate(22.77777777777778 43.342013888888886)"/><use xlink:href="#h" transform="matrix(1,0,0,1,-822,691.1019791666666) translate(76.97048611111111 43.342013888888886)"/><use xlink:href="#i" transform="matrix(1,0,0,1,-822,691.1019791666666) translate(135.55555555555554 43.342013888888886)"/><use xlink:href="#j" transform="matrix(1,0,0,1,-822,691.1019791666666) translate(182.36979166666666 43.342013888888886)"/><use xlink:href="#k" transform="matrix(1,0,0,1,-822,691.1019791666666) translate(17.77777777777778 69.15451388888889)"/><use xlink:href="#l" transform="matrix(1,0,0,1,-822,691.1019791666666) translate(74.18402777777777 69.15451388888889)"/><use xlink:href="#m" transform="matrix(1,0,0,1,-822,691.1019791666666) translate(134.21875 69.15451388888889)"/><use xlink:href="#n" transform="matrix(1,0,0,1,-822,691.1019791666666) translate(184.21006944444446 69.15451388888889)"/><use xlink:href="#o" transform="matrix(1,0,0,1,-822,691.1019791666666) translate(17.77777777777778 94.96701388888889)"/><use xlink:href="#p" transform="matrix(1,0,0,1,-822,691.1019791666666) translate(54.149305555555564 94.96701388888889)"/><use xlink:href="#q" transform="matrix(1,0,0,1,-822,691.1019791666666) translate(121.73611111111114 94.96701388888889)"/><use xlink:href="#r" transform="matrix(1,0,0,1,-822,691.1019791666666) translate(173.15972222222226 94.96701388888889)"/><use xlink:href="#s" transform="matrix(1,0,0,1,-822,691.1019791666666) translate(197.52604166666669 94.96701388888889)"/><use xlink:href="#e" transform="matrix(1,0,0,1,-822,691.1019791666666) translate(3.8888888888888893 120.77951388888889)"/><use xlink:href="#t" transform="matrix(1,0,0,1,-822,691.1019791666666) translate(17.77777777777778 120.77951388888889)"/><use xlink:href="#u" transform="matrix(1,0,0,1,-822,691.1019791666666) translate(101.03298611111111 120.77951388888889)"/><use xlink:href="#v" transform="matrix(1,0,0,1,-822,691.1019791666666) translate(180.59027777777777 120.77951388888889)"/><use xlink:href="#w" transform="matrix(1,0,0,1,-822,691.1019791666666) translate(17.77777777777778 146.59201388888886)"/><use xlink:href="#x" transform="matrix(1,0,0,1,-822,691.1019791666666) translate(72.77777777777777 146.59201388888886)"/><use xlink:href="#y" transform="matrix(1,0,0,1,-822,691.1019791666666) translate(94.07986111111111 146.59201388888886)"/><use xlink:href="#e" transform="matrix(1,0,0,1,-822,691.1019791666666) translate(3.8888888888888893 172.40451388888886)"/><use xlink:href="#z" transform="matrix(1,0,0,1,-822,691.1019791666666) translate(17.77777777777778 172.40451388888886)"/><use xlink:href="#A" transform="matrix(1,0,0,1,-822,691.1019791666666) translate(56.25 172.40451388888886)"/><use xlink:href="#B" transform="matrix(1,0,0,1,-822,691.1019791666666) translate(95.58159722222223 172.40451388888886)"/><use xlink:href="#C" transform="matrix(1,0,0,1,-822,691.1019791666666) translate(121.83159722222223 172.40451388888886)"/><path d="M-520 713.1a30 30 0 0 1 30-30h240a30 30 0 0 1 30 30v213.8a30 30 0 0 1-30 30h-240a30 30 0 0 1-30-30z" stroke="#000" stroke-width="2" fill-opacity="0"/><use xlink:href="#D" transform="matrix(1,0,0,1,-482,691.1019791666666) translate(76.73958333333333 17.623263888888893)"/><use xlink:href="#e" transform="matrix(1,0,0,1,-482,691.1019791666666) translate(3.8888888888888893 43.435763888888886)"/><use xlink:href="#E" transform="matrix(1,0,0,1,-482,691.1019791666666) translate(17.77777777777778 43.435763888888886)"/><use xlink:href="#F" transform="matrix(1,0,0,1,-482,691.1019791666666) translate(72.41319444444446 43.435763888888886)"/><use xlink:href="#G" transform="matrix(1,0,0,1,-482,691.1019791666666) translate(17.77777777777778 69.24826388888889)"/><use xlink:href="#H" transform="matrix(1,0,0,1,-482,691.1019791666666) translate(17.77777777777778 95.06076388888889)"/><use xlink:href="#e" transform="matrix(1,0,0,1,-482,691.1019791666666) translate(3.8888888888888893 120.87326388888889)"/><use xlink:href="#I" transform="matrix(1,0,0,1,-482,691.1019791666666) translate(17.77777777777778 120.87326388888889)"/><use xlink:href="#J" transform="matrix(1,0,0,1,-482,691.1019791666666) translate(85.59895833333334 120.87326388888889)"/><use xlink:href="#K" transform="matrix(1,0,0,1,-482,691.1019791666666) translate(136.5277777777778 120.87326388888889)"/><use xlink:href="#L" transform="matrix(1,0,0,1,-482,691.1019791666666) translate(201.0590277777778 120.87326388888889)"/><use xlink:href="#M" transform="matrix(1,0,0,1,-482,691.1019791666666) translate(17.77777777777778 146.68576388888886)"/><use xlink:href="#N" transform="matrix(1,0,0,1,-482,691.1019791666666) translate(73.66319444444446 146.68576388888886)"/><use xlink:href="#O" transform="matrix(1,0,0,1,-482,691.1019791666666) translate(89.47048611111113 146.68576388888886)"/><use xlink:href="#P" transform="matrix(1,0,0,1,-482,691.1019791666666) translate(125.06944444444446 146.68576388888886)"/><use xlink:href="#e" transform="matrix(1,0,0,1,-482,691.1019791666666) translate(3.8888888888888893 172.49826388888886)"/><use xlink:href="#Q" transform="matrix(1,0,0,1,-482,691.1019791666666) translate(17.77777777777778 172.49826388888886)"/><use xlink:href="#R" transform="matrix(1,0,0,1,-482,691.1019791666666) translate(64.28819444444444 172.49826388888886)"/><use xlink:href="#S" transform="matrix(1,0,0,1,-482,691.1019791666666) translate(131.04166666666669 172.49826388888886)"/><use xlink:href="#T" transform="matrix(1,0,0,1,-482,691.1019791666666) translate(153.28125000000003 172.49826388888886)"/><use xlink:href="#L" transform="matrix(1,0,0,1,-482,691.1019791666666) translate(197.1701388888889 172.49826388888886)"/><use xlink:href="#U" transform="matrix(1,0,0,1,-482,691.1019791666666) translate(17.77777777777778 198.31076388888886)"/><use xlink:href="#V" transform="matrix(1,0,0,1,-482,691.1019791666666) translate(44.34027777777778 198.31076388888886)"/><use xlink:href="#x" transform="matrix(1,0,0,1,-482,691.1019791666666) translate(90.29513888888889 198.31076388888886)"/><use xlink:href="#W" transform="matrix(1,0,0,1,-482,691.1019791666666) translate(111.59722222222223 198.31076388888886)"/><path d="M-200 710a30 30 0 0 1 30-30H52.82a30 30 0 0 1 30 30v220a30 30 0 0 1-30 30H-170a30 30 0 0 1-30-30z" stroke="#000" stroke-width="2" fill-opacity="0"/><use xlink:href="#X" transform="matrix(1,0,0,1,-162,688) translate(83.8515625 17.623263888888893)"/><use xlink:href="#e" transform="matrix(1,0,0,1,-162,688) translate(3.8888888888888893 43.435763888888886)"/><use xlink:href="#Y" transform="matrix(1,0,0,1,-162,688) translate(17.77777777777778 43.435763888888886)"/><use xlink:href="#x" transform="matrix(1,0,0,1,-162,688) translate(75 43.435763888888886)"/><use xlink:href="#Z" transform="matrix(1,0,0,1,-162,688) translate(96.30208333333334 43.435763888888886)"/><use xlink:href="#aa" transform="matrix(1,0,0,1,-162,688) translate(151.69270833333334 43.435763888888886)"/><use xlink:href="#ab" transform="matrix(1,0,0,1,-162,688) translate(17.77777777777778 69.24826388888889)"/><use xlink:href="#o" transform="matrix(1,0,0,1,-162,688) translate(59.730902777777786 69.24826388888889)"/><use xlink:href="#ac" transform="matrix(1,0,0,1,-162,688) translate(96.10243055555557 69.24826388888889)"/><use xlink:href="#ad" transform="matrix(1,0,0,1,-162,688) translate(142.23958333333337 69.24826388888889)"/><use xlink:href="#ae" transform="matrix(1,0,0,1,-162,688) translate(17.77777777777778 95.06076388888889)"/><use xlink:href="#e" transform="matrix(1,0,0,1,-162,688) translate(3.8888888888888893 120.87326388888889)"/><use xlink:href="#af" transform="matrix(1,0,0,1,-162,688) translate(17.77777777777778 120.87326388888889)"/><use xlink:href="#ag" transform="matrix(1,0,0,1,-162,688) translate(108.60243055555554 120.87326388888889)"/><use xlink:href="#L" transform="matrix(1,0,0,1,-162,688) translate(152.71701388888889 120.87326388888889)"/><use xlink:href="#y" transform="matrix(1,0,0,1,-162,688) translate(17.77777777777778 146.68576388888886)"/><use xlink:href="#e" transform="matrix(1,0,0,1,-162,688) translate(3.8888888888888893 172.49826388888886)"/><use xlink:href="#ah" transform="matrix(1,0,0,1,-162,688) translate(17.77777777777778 172.49826388888886)"/><use xlink:href="#h" transform="matrix(1,0,0,1,-162,688) translate(64.30555555555556 172.49826388888886)"/><use xlink:href="#x" transform="matrix(1,0,0,1,-162,688) translate(122.890625 172.49826388888886)"/><use xlink:href="#ai" transform="matrix(1,0,0,1,-162,688) translate(144.19270833333334 172.49826388888886)"/><use xlink:href="#x" transform="matrix(1,0,0,1,-162,688) translate(17.77777777777778 198.31076388888886)"/><use xlink:href="#W" transform="matrix(1,0,0,1,-162,688) translate(39.079861111111114 198.31076388888886)"/><path d="M102.82 710a30 30 0 0 1 30-30h222.82a30 30 0 0 1 30 30v220a30 30 0 0 1-30 30H132.82a30 30 0 0 1-30-30z" stroke="#000" stroke-width="2" fill-opacity="0"/><g><use xlink:href="#aj" transform="matrix(1,0,0,1,140.82249999999993,688) translate(60.01475694444444 17.404513888888907)"/><use xlink:href="#ak" transform="matrix(1,0,0,1,140.82249999999993,688) translate(117.42795138888889 17.404513888888907)"/><use xlink:href="#e" transform="matrix(1,0,0,1,140.82249999999993,688) translate(3.8888888888888893 43.2170138888889)"/><use xlink:href="#al" transform="matrix(1,0,0,1,140.82249999999993,688) translate(17.77777777777778 43.2170138888889)"/><use xlink:href="#am" transform="matrix(1,0,0,1,140.82249999999993,688) translate(64.27951388888889 43.2170138888889)"/><use xlink:href="#S" transform="matrix(1,0,0,1,140.82249999999993,688) translate(117.55208333333334 43.2170138888889)"/><use xlink:href="#an" transform="matrix(1,0,0,1,140.82249999999993,688) translate(139.79166666666669 43.2170138888889)"/><use xlink:href="#ao" transform="matrix(1,0,0,1,140.82249999999993,688) translate(17.77777777777778 69.0295138888889)"/><use xlink:href="#S" transform="matrix(1,0,0,1,140.82249999999993,688) translate(67.49131944444446 69.0295138888889)"/><use xlink:href="#ap" transform="matrix(1,0,0,1,140.82249999999993,688) translate(89.7309027777778 69.0295138888889)"/><use xlink:href="#e" transform="matrix(1,0,0,1,140.82249999999993,688) translate(3.8888888888888893 94.84201388888889)"/><use xlink:href="#Y" transform="matrix(1,0,0,1,140.82249999999993,688) translate(17.77777777777778 94.84201388888889)"/><use xlink:href="#x" transform="matrix(1,0,0,1,140.82249999999993,688) translate(75 94.84201388888889)"/><use xlink:href="#ac" transform="matrix(1,0,0,1,140.82249999999993,688) translate(96.30208333333334 94.84201388888889)"/><use xlink:href="#aq" transform="matrix(1,0,0,1,140.82249999999993,688) translate(142.43923611111114 94.84201388888889)"/><use xlink:href="#L" transform="matrix(1,0,0,1,140.82249999999993,688) translate(171.25000000000003 94.84201388888889)"/><use xlink:href="#ar" transform="matrix(1,0,0,1,140.82249999999993,688) translate(17.77777777777778 120.65451388888889)"/><use xlink:href="#ab" transform="matrix(1,0,0,1,140.82249999999993,688) translate(52.99479166666667 120.65451388888889)"/><use xlink:href="#r" transform="matrix(1,0,0,1,140.82249999999993,688) translate(94.94791666666669 120.65451388888889)"/><use xlink:href="#as" transform="matrix(1,0,0,1,140.82249999999993,688) translate(119.31423611111113 120.65451388888889)"/><use xlink:href="#at" transform="matrix(1,0,0,1,140.82249999999993,688) translate(134.29687500000003 120.65451388888889)"/><use xlink:href="#ae" transform="matrix(1,0,0,1,140.82249999999993,688) translate(17.77777777777778 146.46701388888889)"/><use xlink:href="#e" transform="matrix(1,0,0,1,140.82249999999993,688) translate(3.8888888888888893 172.27951388888889)"/><use xlink:href="#au" transform="matrix(1,0,0,1,140.82249999999993,688) translate(17.77777777777778 172.27951388888889)"/><use xlink:href="#av" transform="matrix(1,0,0,1,140.82249999999993,688) translate(56.814236111111114 172.27951388888889)"/><use xlink:href="#aw" transform="matrix(1,0,0,1,140.82249999999993,688) translate(106.22395833333334 172.27951388888889)"/><use xlink:href="#aa" transform="matrix(1,0,0,1,140.82249999999993,688) translate(134.63541666666669 172.27951388888889)"/><use xlink:href="#ax" transform="matrix(1,0,0,1,140.82249999999993,688) translate(17.77777777777778 198.09201388888889)"/><use xlink:href="#e" transform="matrix(1,0,0,1,140.82249999999993,688) translate(3.8888888888888893 223.90451388888889)"/><use xlink:href="#ah" transform="matrix(1,0,0,1,140.82249999999993,688) translate(17.77777777777778 223.90451388888889)"/><use xlink:href="#x" transform="matrix(1,0,0,1,140.82249999999993,688) translate(64.30555555555556 223.90451388888889)"/><use xlink:href="#ay" transform="matrix(1,0,0,1,140.82249999999993,688) translate(85.60763888888889 223.90451388888889)"/><use xlink:href="#L" transform="matrix(1,0,0,1,140.82249999999993,688) translate(141.171875 223.90451388888889)"/><use xlink:href="#az" transform="matrix(1,0,0,1,140.82249999999993,688) translate(17.77777777777778 249.71701388888889)"/><use xlink:href="#aA" transform="matrix(1,0,0,1,140.82249999999993,688) translate(17.77777777777778 275.52951388888886)"/></g><path d="M-955.08 450a30 30 0 0 1 30-30h260a30 30 0 0 1 30 30v20a30 30 0 0 1-30 30h-260a30 30 0 0 1-30-30z" stroke="#000" stroke-width="2" fill-opacity="0"/><g><use xlink:href="#aB" transform="matrix(1,0,0,1,-917.0825228387267,428) translate(81.10590277777777 17.560763888888893)"/><use xlink:href="#aC" transform="matrix(1,0,0,1,-917.0825228387267,428) translate(120.28993055555554 17.560763888888893)"/><use xlink:href="#e" transform="matrix(1,0,0,1,-917.0825228387267,428) translate(6.111111111111111 43.373263888888886)"/><use xlink:href="#ah" transform="matrix(1,0,0,1,-917.0825228387267,428) translate(22.22222222222222 43.373263888888886)"/><use xlink:href="#x" transform="matrix(1,0,0,1,-917.0825228387267,428) translate(68.75 43.373263888888886)"/><use xlink:href="#aD" transform="matrix(1,0,0,1,-917.0825228387267,428) translate(90.05208333333334 43.373263888888886)"/><use xlink:href="#aE" transform="matrix(1,0,0,1,-917.0825228387267,428) translate(184.80034722222223 43.373263888888886)"/></g><path d="M-768.66 231.83h217.88a.72.72 0 0 0 .72-.72.72.72 0 0 1 .72-.7h202" stroke="#3a414a" fill="none"/><path d="M-768.65 232.3h-.56l.04-.46-.04-.48h.55z" stroke="#3a414a" stroke-width=".05" fill="#3a414a"/><path d="M-332.58 230.4l-14.27 4.62v-9.27z" stroke="#3a414a" fill="#3a414a"/><path d="M-770.16 231.83c0 13.85-11.16 25.07-24.92 25.07-13.76 0-24.92-11.22-24.92-25.07 0-13.84 11.16-25.06 24.92-25.06 13.76 0 24.92 11.22 24.92 25.06z" stroke="#000" stroke-width="2"/><path d="M-620 246a6 6 0 0 1 6-6h271.13a6 6 0 0 1 6 6v24.9a6 6 0 0 1-6 6H-614a6 6 0 0 1-6-6z" fill="none"/><g><use xlink:href="#aF" transform="matrix(1,0,0,1,-615,245) translate(0 21.58376736111111)"/><use xlink:href="#aG" transform="matrix(1,0,0,1,-615,245) translate(55.83767361111111 21.58376736111111)"/><use xlink:href="#aH" transform="matrix(1,0,0,1,-615,245) translate(115.85286458333333 21.58376736111111)"/></g><path d="M-329.96 146.78a6 6 0 0 1 6-6h308a6 6 0 0 1 6 6v218.5a6 6 0 0 1-6 6h-308a6 6 0 0 1-6-6z" fill="none"/><g><use xlink:href="#aI" transform="matrix(1,0,0,1,-324.9619774924114,145.7777068241778) translate(0 21.78689236111112)"/><use xlink:href="#aJ" transform="matrix(1,0,0,1,-324.9619774924114,145.7777068241778) translate(87.5 21.78689236111112)"/><use xlink:href="#aK" transform="matrix(1,0,0,1,-324.9619774924114,145.7777068241778) translate(4.861111111111111 54.05251736111112)"/><use xlink:href="#aL" transform="matrix(1,0,0,1,-324.9619774924114,145.7777068241778) translate(22.22222222222222 54.05251736111112)"/><use xlink:href="#aM" transform="matrix(1,0,0,1,-324.9619774924114,145.7777068241778) translate(74.86979166666666 54.05251736111112)"/><use xlink:href="#aN" transform="matrix(1,0,0,1,-324.9619774924114,145.7777068241778) translate(107.86675347222221 54.05251736111112)"/><use xlink:href="#aO" transform="matrix(1,0,0,1,-324.9619774924114,145.7777068241778) translate(135.80729166666666 54.05251736111112)"/><use xlink:href="#aP" transform="matrix(1,0,0,1,-324.9619774924114,145.7777068241778) translate(174.3923611111111 54.05251736111112)"/><use xlink:href="#aQ" transform="matrix(1,0,0,1,-324.9619774924114,145.7777068241778) translate(199.15364583333331 54.05251736111112)"/><use xlink:href="#aR" transform="matrix(1,0,0,1,-324.9619774924114,145.7777068241778) translate(22.22222222222222 86.31814236111111)"/><use xlink:href="#aK" transform="matrix(1,0,0,1,-324.9619774924114,145.7777068241778) translate(4.861111111111111 118.58376736111111)"/><use xlink:href="#aS" transform="matrix(1,0,0,1,-324.9619774924114,145.7777068241778) translate(22.22222222222222 118.58376736111111)"/><use xlink:href="#aT" transform="matrix(1,0,0,1,-324.9619774924114,145.7777068241778) translate(96.25651041666666 118.58376736111111)"/><use xlink:href="#aU" transform="matrix(1,0,0,1,-324.9619774924114,145.7777068241778) translate(204.98046875 118.58376736111111)"/><use xlink:href="#aV" transform="matrix(1,0,0,1,-324.9619774924114,145.7777068241778) translate(22.22222222222222 150.84939236111111)"/><use xlink:href="#aW" transform="matrix(1,0,0,1,-324.9619774924114,145.7777068241778) translate(91.62326388888889 150.84939236111111)"/><use xlink:href="#aX" transform="matrix(1,0,0,1,-324.9619774924114,145.7777068241778) translate(150.78125 150.84939236111111)"/><use xlink:href="#aY" transform="matrix(1,0,0,1,-324.9619774924114,145.7777068241778) translate(0 183.11501736111111)"/><use xlink:href="#aZ" transform="matrix(1,0,0,1,-324.9619774924114,145.7777068241778) translate(0 215.38064236111111)"/></g><path d="M-169.96 321.5v181.12" stroke="#3a414a" fill="none"/><path d="M-169.5 321.5h-.94v-.5h.95z" stroke="#3a414a" stroke-width=".05" fill="#3a414a"/><path d="M-169.96 517.38l-4.64-14.26h9.27z" stroke="#3a414a" fill="#3a414a"/><path d="M-160 366a6 6 0 0 1 6-6H76.82a6 6 0 0 1 6 6v24.9a6 6 0 0 1-6 6H-154a6 6 0 0 1-6-6z" fill="none"/><g><use xlink:href="#ba" transform="matrix(1,0,0,1,-155,365) translate(0 21.58376736111111)"/><use xlink:href="#bb" transform="matrix(1,0,0,1,-155,365) translate(158.36588541666663 21.58376736111111)"/></g><path d="M-320.22 558.77v63.86a6 6 0 0 1-6 6H-694a6 6 0 0 0-6 6v31.1" stroke="#3a414a" fill="none"/><path d="M-319.75 558.56v.22h-.95v-.8z" stroke="#3a414a" stroke-width=".05" fill="#3a414a"/><path d="M-700 680.48l-4.63-14.26h9.26z" stroke="#3a414a" fill="#3a414a"/><path d="M-248.96 561.5v54.05a6 6 0 0 1-6 6h-88.06a6 6 0 0 0-6 6v38.17" stroke="#3a414a" fill="none"/><path d="M-248.5 561.5h-.94v-.5h.95z" stroke="#3a414a" stroke-width=".05" fill="#3a414a"/><path d="M-349.02 680.48l-4.63-14.26h9.27z" stroke="#3a414a" fill="#3a414a"/><path d="M-90.96 561.5v102.12" stroke="#3a414a" fill="none"/><path d="M-90.5 561.5h-.94v-.5h.95z" stroke="#3a414a" stroke-width=".05" fill="#3a414a"/><path d="M-90.96 678.38l-4.64-14.26h9.27z" stroke="#3a414a" fill="#3a414a"/><path d="M-15.1 555.35v55.58a6 6 0 0 0 6 6h247.33a6 6 0 0 1 6 6v39.7" stroke="#3a414a" fill="none"/><path d="M-14.64 555.36h-.95v-.1l.5-.4.46-.57z" stroke="#3a414a" stroke-width=".05" fill="#3a414a"/><path d="M244.23 677.38l-4.63-14.26h9.27z" stroke="#3a414a" fill="#3a414a"/><path d="M-370 958.4V994a6 6 0 0 0 6 6h838a6 6 0 0 0 6-6V546a6 6 0 0 0-6-6H7.43" stroke="#3a414a" fill="none"/><path d="M-369.52 958.4h-.96v-.5h.96z" stroke="#3a414a" stroke-width=".05" fill="#3a414a"/><path d="M-7.34 540l14.27-4.63v9.26z" stroke="#3a414a" fill="#3a414a"/><path d="M-58.6 961.5v22.12" stroke="#3a414a" fill="none"/><path d="M-58.1 961.5h-.96v-.5h.95z" stroke="#3a414a" stroke-width=".05" fill="#3a414a"/><path d="M-58.6 998.38l-4.62-14.26h9.27z" stroke="#3a414a" fill="#3a414a"/><path d="M244.23 961.5v22.12" stroke="#3a414a" fill="none"/><path d="M244.7 961.5h-.94v-.5h.95z" stroke="#3a414a" stroke-width=".05" fill="#3a414a"/><path d="M244.23 998.38l-4.63-14.26h9.27z" stroke="#3a414a" fill="#3a414a"/><path d="M480 766a6 6 0 0 1 6-6h123.15a6 6 0 0 1 6 6v24.9a6 6 0 0 1-6 6H486a6 6 0 0 1-6-6z" fill="none"/><g><use xlink:href="#bc" transform="matrix(1,0,0,1,485,765) translate(0 21.58376736111111)"/><use xlink:href="#bd" transform="matrix(1,0,0,1,485,765) translate(58.15972222222222 21.58376736111111)"/></g><path d="M-795.08 258.4v144.22" stroke="#3a414a" fill="none"/><path d="M-795.1 257.9l.5-.04v.56h-.96v-.56z" stroke="#3a414a" stroke-width=".05" fill="#3a414a"/><path d="M-795.08 417.38l-4.64-14.26h9.27z" stroke="#3a414a" fill="#3a414a"/><path d="M-1140 326a6 6 0 0 1 6-6h306.48a6 6 0 0 1 6 6v24.9a6 6 0 0 1-6 6H-1134a6 6 0 0 1-6-6z" fill="none"/><g><use xlink:href="#be" transform="matrix(1,0,0,1,-1135,325) translate(0 21.58376736111111)"/><use xlink:href="#bf" transform="matrix(1,0,0,1,-1135,325) translate(74.25130208333333 21.58376736111111)"/><use xlink:href="#bg" transform="matrix(1,0,0,1,-1135,325) translate(133.02951388888889 21.58376736111111)"/><use xlink:href="#bh" transform="matrix(1,0,0,1,-1135,325) translate(159.02777777777777 21.58376736111111)"/><use xlink:href="#bi" transform="matrix(1,0,0,1,-1135,325) translate(198.64366319444443 21.58376736111111)"/><use xlink:href="#bj" transform="matrix(1,0,0,1,-1135,325) translate(244.5855034722222 21.58376736111111)"/><use xlink:href="#bk" transform="matrix(1,0,0,1,-1135,325) translate(272.38498263888886 21.58376736111111)"/></g><path d="M-795.08 501.5V594a6 6 0 0 1-6 6H-954a6 6 0 0 0-6 6v388a6 6 0 0 0 6 6h567.62" stroke="#3a414a" fill="none"/><path d="M-794.6 501.5h-.96v-.5h.95z" stroke="#3a414a" stroke-width=".05" fill="#3a414a"/><path d="M-371.62 1000l-14.26 4.63v-9.26z" stroke="#3a414a" fill="#3a414a"/><path d="M-31.63 518.5V486a6 6 0 0 1 6-6H234a6 6 0 0 0 6-6V236.4a6 6 0 0 0-6-6H7.42" stroke="#3a414a" fill="none"/><path d="M-31.15 519h-.95v-.5h.95z" stroke="#3a414a" stroke-width=".05" fill="#3a414a"/><path d="M-7.34 230.4l14.26-4.65v9.27z" stroke="#3a414a" fill="#3a414a"/><path d="M260 329.1a6 6 0 0 1 6-6h249.23a6 6 0 0 1 6 6V354a6 6 0 0 1-6 6H266a6 6 0 0 1-6-6z" fill="none"/><g><use xlink:href="#bl" transform="matrix(1,0,0,1,265,328.10197916666664) translate(0 21.58376736111111)"/><use xlink:href="#bm" transform="matrix(1,0,0,1,265,328.10197916666664) translate(79.50303819444443 21.58376736111111)"/><use xlink:href="#aP" transform="matrix(1,0,0,1,265,328.10197916666664) translate(152.734375 21.58376736111111)"/><use xlink:href="#bn" transform="matrix(1,0,0,1,265,328.10197916666664) translate(177.49565972222223 21.58376736111111)"/></g><defs><path d="M645 0H180v-1490h484c435 0 692 280 692 742 0 466-257 748-711 748zM370-168h263c363 0 539-218 539-580 0-358-176-574-521-574H370v1154" id="bo"/><path d="M471 26C259 26 90-98 90-318c0-256 228-303 435-329 202-27 287-16 287-108 0-139-79-219-234-219-161 0-248 86-283 164l-173-57c86-203 278-265 451-265 150 0 419 46 419 395V0H815v-152h-12C765-73 660 26 471 26zm31-159c199 0 310-134 310-271v-155c-30 35-226 55-295 64-131 17-246 59-246 186 0 116 97 176 231 176" id="bp"/><path d="M538 24C308 24 148-78 108-271l171-41c32 123 123 178 257 178 156 0 256-77 256-169 0-77-54-128-164-154l-186-44c-203-48-300-148-300-305 0-192 176-326 414-326 230 0 351 112 402 269l-163 42c-31-80-94-158-238-158-133 0-233 69-233 162 0 83 57 129 188 160l169 40c203 48 298 149 298 302 0 196-179 339-441 339" id="bq"/><path d="M338-670V0H158v-1490h180v566c73-149 190-208 336-208 226 0 379 139 379 422V0H872v-695c0-172-96-275-252-275-161 0-282 109-282 300" id="br"/><path d="M677 24c-213 0-288-135-325-197h-20V0H158v-1490h180v551h14c37-59 106-193 324-193 279 0 474 222 474 576 0 356-194 580-473 580zm-27-161c209 0 317-186 317-421 0-232-105-413-317-413-206 0-314 166-314 413 0 249 111 421 314 421" id="bs"/><path d="M613 24c-304 0-509-231-509-576 0-350 205-580 509-580 305 0 511 230 511 580 0 345-206 576-511 576zm0-161c226 0 329-195 329-415 0-222-103-419-329-419-223 0-326 196-326 419 0 220 103 415 326 415" id="bt"/><path d="M158 0v-1118h174v172h12c41-113 157-188 290-188 26 0 70 2 91 3v181c-11-2-60-10-108-10-161 0-279 109-279 260V0H158" id="bu"/><path d="M577 24c-279 0-473-224-473-580 0-354 195-576 474-576 218 0 287 134 324 193h14v-551h180V0H922v-173h-20C865-111 790 24 577 24zm27-161c203 0 314-172 314-421 0-247-108-413-314-413-212 0-317 181-317 413 0 235 108 421 317 421" id="bv"/><g id="a"><use transform="matrix(0.010850694444444444,0,0,0.010850694444444444,0,0)" xlink:href="#bo"/><use transform="matrix(0.010850694444444444,0,0,0.010850694444444444,16.03732638888889,0)" xlink:href="#bp"/><use transform="matrix(0.010850694444444444,0,0,0.010850694444444444,28.515625,0)" xlink:href="#bq"/><use transform="matrix(0.010850694444444444,0,0,0.010850694444444444,40.24522569444444,0)" xlink:href="#br"/><use transform="matrix(0.010850694444444444,0,0,0.010850694444444444,53.385416666666664,0)" xlink:href="#bs"/><use transform="matrix(0.010850694444444444,0,0,0.010850694444444444,66.9921875,0)" xlink:href="#bt"/><use transform="matrix(0.010850694444444444,0,0,0.010850694444444444,80.53385416666666,0)" xlink:href="#bp"/><use transform="matrix(0.010850694444444444,0,0,0.010850694444444444,93.01215277777777,0)" xlink:href="#bu"/><use transform="matrix(0.010850694444444444,0,0,0.010850694444444444,101.00911458333333,0)" xlink:href="#bv"/></g><path d="M180 0v-1490h901v168H370v510h643v168H370V0H180" id="bw"/><path d="M628 24c-324 0-524-230-524-574 0-343 198-582 503-582 237 0 487 146 487 559v75H286c9 234 145 362 343 362 132 0 231-58 273-172l174 48C1024-91 857 24 628 24zM287-650h624c-17-190-120-322-304-322-192 0-309 151-320 322" id="bx"/><path d="M1096 418H916v-591h-14C865-111 790 24 577 24c-279 0-473-224-473-580 0-354 195-576 474-576 218 0 287 134 324 193h20v-179h174V418zM604-137c203 0 314-172 314-421 0-247-108-413-314-413-212 0-317 181-317 413 0 235 108 421 317 421" id="by"/><path d="M537 14c-226 0-379-139-379-422v-710h180v695c0 172 97 275 253 275 160 0 281-109 281-300v-670h181V0H879v-209C806-46 684 14 537 14" id="bz"/><path d="M338-670V0H158v-1118h173l1 207c72-158 192-221 342-221 226 0 378 139 378 422V0H872v-695c0-172-96-275-252-275-161 0-282 109-282 300" id="bA"/><path d="M598-1118v154H368v674c0 100 37 144 132 144 23 0 62-6 92-12L629-6c-37 13-88 20-134 20-193 0-307-107-307-290v-688H20v-154h168v-266h180v266h230" id="bB"/><path d="M338-1490V0H158v-1490h180" id="bC"/><path d="M140 405l46-156c120 36 205 19 263-150l32-93L54-1118h197c107 313 237 620 324 950 87-331 219-637 326-950h196L606 167c-68 178-176 259-334 259-64 0-113-12-132-21" id="bD"/><g id="b"><use transform="matrix(0.008680555555555556,0,0,0.008680555555555556,0,0)" xlink:href="#bw"/><use transform="matrix(0.008680555555555556,0,0,0.008680555555555556,9.973958333333334,0)" xlink:href="#bu"/><use transform="matrix(0.008680555555555556,0,0,0.008680555555555556,16.37152777777778,0)" xlink:href="#bx"/><use transform="matrix(0.008680555555555556,0,0,0.008680555555555556,26.73611111111111,0)" xlink:href="#by"/><use transform="matrix(0.008680555555555556,0,0,0.008680555555555556,37.621527777777786,0)" xlink:href="#bz"/><use transform="matrix(0.008680555555555556,0,0,0.008680555555555556,48.133680555555564,0)" xlink:href="#bx"/><use transform="matrix(0.008680555555555556,0,0,0.008680555555555556,58.4982638888889,0)" xlink:href="#bA"/><use transform="matrix(0.008680555555555556,0,0,0.008680555555555556,69.00173611111113,0)" xlink:href="#bB"/><use transform="matrix(0.008680555555555556,0,0,0.008680555555555556,74.81770833333336,0)" xlink:href="#bC"/><use transform="matrix(0.008680555555555556,0,0,0.008680555555555556,79.21006944444446,0)" xlink:href="#bD"/></g><path d="M481 0L54-1118h197c107 314 236 620 325 951 87-331 217-637 324-951h197L670 0H481" id="bE"/><path d="M158 0v-1118h180V0H158zm91-1301c-68 0-125-53-125-119s57-119 125-119c69 0 126 53 126 119s-57 119-126 119" id="bF"/><g id="c"><use transform="matrix(0.008680555555555556,0,0,0.008680555555555556,0,0)" xlink:href="#bE"/><use transform="matrix(0.008680555555555556,0,0,0.008680555555555556,9.991319444444445,0)" xlink:href="#bF"/><use transform="matrix(0.008680555555555556,0,0,0.008680555555555556,14.296875,0)" xlink:href="#bq"/><use transform="matrix(0.008680555555555556,0,0,0.008680555555555556,23.680555555555557,0)" xlink:href="#bF"/><use transform="matrix(0.008680555555555556,0,0,0.008680555555555556,27.98611111111111,0)" xlink:href="#bB"/><use transform="matrix(0.008680555555555556,0,0,0.008680555555555556,33.62847222222223,0)" xlink:href="#bx"/><use transform="matrix(0.008680555555555556,0,0,0.008680555555555556,43.993055555555564,0)" xlink:href="#bv"/></g><path d="M409 0L70-1118h191c89 329 165 560 243 925 75-353 154-601 240-925h192c85 325 161 564 235 922 77-354 157-598 244-922h191L1267 0h-179c-86-307-176-590-250-913C763-588 675-308 588 0H409" id="bG"/><g id="d"><use transform="matrix(0.008680555555555556,0,0,0.008680555555555556,0,0)" xlink:href="#bG"/><use transform="matrix(0.008680555555555556,0,0,0.008680555555555556,14.227430555555555,0)" xlink:href="#bx"/><use transform="matrix(0.008680555555555556,0,0,0.008680555555555556,24.592013888888893,0)" xlink:href="#bs"/><use transform="matrix(0.008680555555555556,0,0,0.008680555555555556,35.47743055555556,0)" xlink:href="#bq"/><use transform="matrix(0.008680555555555556,0,0,0.008680555555555556,44.861111111111114,0)" xlink:href="#bF"/><use transform="matrix(0.008680555555555556,0,0,0.008680555555555556,49.16666666666667,0)" xlink:href="#bB"/><use transform="matrix(0.008680555555555556,0,0,0.008680555555555556,54.80902777777778,0)" xlink:href="#bx"/><use transform="matrix(0.008680555555555556,0,0,0.008680555555555556,65.17361111111111,0)" xlink:href="#bq"/></g><path d="M576-274c-177 0-320-143-320-320s143-320 320-320 320 143 320 320-143 320-320 320" id="bH"/><use transform="matrix(0.008680555555555556,0,0,0.008680555555555556,0,0)" xlink:href="#bH" id="e"/><path d="M232-923l-22-567h194l-22 567H232zm340 0l-22-567h194l-22 567H572" id="bI"/><path d="M52 0l541-1490h220L1361 0h-200l-149-416H398L254 0H52zm404-582h497c-103-290-145-390-251-756-108 377-145 460-246 756" id="bJ"/><g id="g"><use transform="matrix(0.008680555555555556,0,0,0.008680555555555556,0,0)" xlink:href="#bI"/><use transform="matrix(0.008680555555555556,0,0,0.008680555555555556,6.875,0)" xlink:href="#bJ"/><use transform="matrix(0.008680555555555556,0,0,0.008680555555555556,19.140625,0)" xlink:href="#bv"/><use transform="matrix(0.008680555555555556,0,0,0.008680555555555556,30.026041666666668,0)" xlink:href="#bv"/><use transform="matrix(0.008680555555555556,0,0,0.008680555555555556,40.911458333333336,0)" xlink:href="#bI"/></g><g id="h"><use transform="matrix(0.008680555555555556,0,0,0.008680555555555556,0,0)" xlink:href="#bs"/><use transform="matrix(0.008680555555555556,0,0,0.008680555555555556,10.885416666666668,0)" xlink:href="#bz"/><use transform="matrix(0.008680555555555556,0,0,0.008680555555555556,21.397569444444446,0)" xlink:href="#bB"/><use transform="matrix(0.008680555555555556,0,0,0.008680555555555556,26.77951388888889,0)" xlink:href="#bB"/><use transform="matrix(0.008680555555555556,0,0,0.008680555555555556,32.421875,0)" xlink:href="#bt"/><use transform="matrix(0.008680555555555556,0,0,0.008680555555555556,43.08159722222222,0)" xlink:href="#bA"/></g><path d="M158 418v-1536h174v179h20c37-59 106-193 324-193 279 0 474 222 474 576 0 356-194 580-473 580-213 0-288-135-325-197h-14v591H158zm492-555c209 0 317-186 317-421 0-232-105-413-317-413-206 0-314 166-314 413 0 249 111 421 314 421" id="bK"/><g id="i"><use transform="matrix(0.008680555555555556,0,0,0.008680555555555556,0,0)" xlink:href="#bK"/><use transform="matrix(0.008680555555555556,0,0,0.008680555555555556,10.885416666666668,0)" xlink:href="#bt"/><use transform="matrix(0.008680555555555556,0,0,0.008680555555555556,21.545138888888893,0)" xlink:href="#bK"/><use transform="matrix(0.008680555555555556,0,0,0.008680555555555556,32.43055555555556,0)" xlink:href="#bq"/></g><g id="j"><use transform="matrix(0.008680555555555556,0,0,0.008680555555555556,0,0)" xlink:href="#bz"/><use transform="matrix(0.008680555555555556,0,0,0.008680555555555556,10.512152777777779,0)" xlink:href="#bK"/></g><path d="M158 0v-1118h175l1 205c55-151 181-225 313-225 147 0 245 90 285 228 53-141 190-228 352-228 194 0 352 125 352 384V0h-181v-749c0-161-105-225-225-225-151 0-243 103-243 244V0H807v-767c0-124-93-207-219-207-131 0-250 92-250 270V0H158" id="bL"/><g id="k"><use transform="matrix(0.008680555555555556,0,0,0.008680555555555556,0,0)" xlink:href="#bL"/><use transform="matrix(0.008680555555555556,0,0,0.008680555555555556,15.572916666666668,0)" xlink:href="#bt"/><use transform="matrix(0.008680555555555556,0,0,0.008680555555555556,26.232638888888893,0)" xlink:href="#bv"/><use transform="matrix(0.008680555555555556,0,0,0.008680555555555556,37.11805555555556,0)" xlink:href="#bp"/><use transform="matrix(0.008680555555555556,0,0,0.008680555555555556,47.10069444444445,0)" xlink:href="#bC"/></g><path d="M613 24c-304 0-509-231-509-576 0-350 205-580 509-580 216 0 392 114 453 309l-173 49c-33-115-133-197-280-197-223 0-326 196-326 419 0 220 103 415 326 415 150 0 252-85 285-206l172 49C1010-95 832 24 613 24" id="bM"/><g id="l"><use transform="matrix(0.008680555555555556,0,0,0.008680555555555556,0,0)" xlink:href="#bG"/><use transform="matrix(0.008680555555555556,0,0,0.008680555555555556,14.548611111111112,0)" xlink:href="#br"/><use transform="matrix(0.008680555555555556,0,0,0.008680555555555556,25.060763888888893,0)" xlink:href="#bF"/><use transform="matrix(0.008680555555555556,0,0,0.008680555555555556,29.36631944444445,0)" xlink:href="#bM"/><use transform="matrix(0.008680555555555556,0,0,0.008680555555555556,39.52256944444444,0)" xlink:href="#br"/></g><path d="M158 0v-1490h180v865h22l478-493h223L593-638 1096 0H865L456-523 338-412V0H158" id="bN"/><g id="m"><use transform="matrix(0.008680555555555556,0,0,0.008680555555555556,0,0)" xlink:href="#bB"/><use transform="matrix(0.008680555555555556,0,0,0.008680555555555556,5.902777777777778,0)" xlink:href="#bp"/><use transform="matrix(0.008680555555555556,0,0,0.008680555555555556,15.885416666666668,0)" xlink:href="#bN"/><use transform="matrix(0.008680555555555556,0,0,0.008680555555555556,25.243055555555557,0)" xlink:href="#bx"/><use transform="matrix(0.008680555555555556,0,0,0.008680555555555556,35.60763888888889,0)" xlink:href="#bq"/></g><g id="n"><use transform="matrix(0.008680555555555556,0,0,0.008680555555555556,0,0)" xlink:href="#bz"/><use transform="matrix(0.008680555555555556,0,0,0.008680555555555556,10.512152777777779,0)" xlink:href="#bu"/><use transform="matrix(0.008680555555555556,0,0,0.008680555555555556,17.482638888888893,0)" xlink:href="#bC"/><use transform="matrix(0.008680555555555556,0,0,0.008680555555555556,21.78819444444445,0)" xlink:href="#bq"/></g><g id="o"><use transform="matrix(0.008680555555555556,0,0,0.008680555555555556,0,0)" xlink:href="#bp"/><use transform="matrix(0.008680555555555556,0,0,0.008680555555555556,9.98263888888889,0)" xlink:href="#bA"/><use transform="matrix(0.008680555555555556,0,0,0.008680555555555556,20.486111111111114,0)" xlink:href="#bv"/></g><g id="p"><use transform="matrix(0.008680555555555556,0,0,0.008680555555555556,0,0)" xlink:href="#bv"/><use transform="matrix(0.008680555555555556,0,0,0.008680555555555556,10.885416666666668,0)" xlink:href="#bx"/><use transform="matrix(0.008680555555555556,0,0,0.008680555555555556,21.25,0)" xlink:href="#bq"/><use transform="matrix(0.008680555555555556,0,0,0.008680555555555556,30.633680555555557,0)" xlink:href="#bF"/><use transform="matrix(0.008680555555555556,0,0,0.008680555555555556,34.939236111111114,0)" xlink:href="#bu"/><use transform="matrix(0.008680555555555556,0,0,0.008680555555555556,41.336805555555564,0)" xlink:href="#bx"/><use transform="matrix(0.008680555555555556,0,0,0.008680555555555556,51.7013888888889,0)" xlink:href="#bv"/></g><g id="q"><use transform="matrix(0.008680555555555556,0,0,0.008680555555555556,0,0)" xlink:href="#bA"/><use transform="matrix(0.008680555555555556,0,0,0.008680555555555556,10.503472222222223,0)" xlink:href="#bp"/><use transform="matrix(0.008680555555555556,0,0,0.008680555555555556,20.486111111111114,0)" xlink:href="#bL"/><use transform="matrix(0.008680555555555556,0,0,0.008680555555555556,36.059027777777786,0)" xlink:href="#bx"/></g><g id="r"><use transform="matrix(0.008680555555555556,0,0,0.008680555555555556,0,0)" xlink:href="#bp"/><use transform="matrix(0.008680555555555556,0,0,0.008680555555555556,9.98263888888889,0)" xlink:href="#bq"/></g><g id="s"><use transform="matrix(0.008680555555555556,0,0,0.008680555555555556,0,0)" xlink:href="#bF"/><use transform="matrix(0.008680555555555556,0,0,0.008680555555555556,4.305555555555555,0)" xlink:href="#bA"/><use transform="matrix(0.008680555555555556,0,0,0.008680555555555556,14.809027777777779,0)" xlink:href="#bK"/><use transform="matrix(0.008680555555555556,0,0,0.008680555555555556,25.694444444444446,0)" xlink:href="#bz"/><use transform="matrix(0.008680555555555556,0,0,0.008680555555555556,36.20659722222223,0)" xlink:href="#bB"/></g><g id="t"><use transform="matrix(0.008680555555555556,0,0,0.008680555555555556,0,0)" xlink:href="#bw"/><use transform="matrix(0.008680555555555556,0,0,0.008680555555555556,10.06076388888889,0)" xlink:href="#bp"/><use transform="matrix(0.008680555555555556,0,0,0.008680555555555556,19.782986111111114,0)" xlink:href="#bE"/><use transform="matrix(0.008680555555555556,0,0,0.008680555555555556,29.427083333333336,0)" xlink:href="#bt"/><use transform="matrix(0.008680555555555556,0,0,0.008680555555555556,40.08680555555556,0)" xlink:href="#bu"/><use transform="matrix(0.008680555555555556,0,0,0.008680555555555556,47.05729166666667,0)" xlink:href="#bF"/><use transform="matrix(0.008680555555555556,0,0,0.008680555555555556,51.362847222222236,0)" xlink:href="#bB"/><use transform="matrix(0.008680555555555556,0,0,0.008680555555555556,57.005208333333336,0)" xlink:href="#bx"/><use transform="matrix(0.008680555555555556,0,0,0.008680555555555556,67.36979166666667,0)" xlink:href="#bv"/></g><g id="u"><use transform="matrix(0.008680555555555556,0,0,0.008680555555555556,0,0)" xlink:href="#bG"/><use transform="matrix(0.008680555555555556,0,0,0.008680555555555556,14.227430555555555,0)" xlink:href="#bx"/><use transform="matrix(0.008680555555555556,0,0,0.008680555555555556,24.592013888888893,0)" xlink:href="#bs"/><use transform="matrix(0.008680555555555556,0,0,0.008680555555555556,35.47743055555556,0)" xlink:href="#bq"/><use transform="matrix(0.008680555555555556,0,0,0.008680555555555556,44.861111111111114,0)" xlink:href="#bF"/><use transform="matrix(0.008680555555555556,0,0,0.008680555555555556,49.16666666666667,0)" xlink:href="#bB"/><use transform="matrix(0.008680555555555556,0,0,0.008680555555555556,54.80902777777778,0)" xlink:href="#bx"/><use transform="matrix(0.008680555555555556,0,0,0.008680555555555556,65.17361111111111,0)" xlink:href="#bq"/></g><g id="v"><use transform="matrix(0.008680555555555556,0,0,0.008680555555555556,0,0)" xlink:href="#bp"/><use transform="matrix(0.008680555555555556,0,0,0.008680555555555556,9.98263888888889,0)" xlink:href="#bu"/><use transform="matrix(0.008680555555555556,0,0,0.008680555555555556,16.380208333333336,0)" xlink:href="#bx"/></g><g id="w"><use transform="matrix(0.008680555555555556,0,0,0.008680555555555556,0,0)" xlink:href="#bq"/><use transform="matrix(0.008680555555555556,0,0,0.008680555555555556,9.383680555555555,0)" xlink:href="#bp"/><use transform="matrix(0.008680555555555556,0,0,0.008680555555555556,19.10590277777778,0)" xlink:href="#bE"/><use transform="matrix(0.008680555555555556,0,0,0.008680555555555556,28.75,0)" xlink:href="#bx"/><use transform="matrix(0.008680555555555556,0,0,0.008680555555555556,39.114583333333336,0)" xlink:href="#bv"/></g><g id="x"><use transform="matrix(0.008680555555555556,0,0,0.008680555555555556,0,0)" xlink:href="#bB"/><use transform="matrix(0.008680555555555556,0,0,0.008680555555555556,5.642361111111112,0)" xlink:href="#bt"/></g><g id="y"><use transform="matrix(0.008680555555555556,0,0,0.008680555555555556,0,0)" xlink:href="#bv"/><use transform="matrix(0.008680555555555556,0,0,0.008680555555555556,10.885416666666668,0)" xlink:href="#bp"/><use transform="matrix(0.008680555555555556,0,0,0.008680555555555556,20.868055555555557,0)" xlink:href="#bB"/><use transform="matrix(0.008680555555555556,0,0,0.008680555555555556,26.770833333333336,0)" xlink:href="#bp"/><use transform="matrix(0.008680555555555556,0,0,0.008680555555555556,36.75347222222223,0)" xlink:href="#bs"/><use transform="matrix(0.008680555555555556,0,0,0.008680555555555556,47.81250000000002,0)" xlink:href="#bp"/><use transform="matrix(0.008680555555555556,0,0,0.008680555555555556,57.7951388888889,0)" xlink:href="#bq"/><use transform="matrix(0.008680555555555556,0,0,0.008680555555555556,67.17881944444446,0)" xlink:href="#bx"/></g><path d="M783 20c-382 0-661-292-661-764 0-473 279-766 661-766 302 0 548 182 601 489h-190c-42-204-217-313-411-313-268 0-476 208-476 590 0 381 209 588 476 588 195 0 369-110 411-313h190c-52 303-296 489-601 489" id="bO"/><g id="z"><use transform="matrix(0.008680555555555556,0,0,0.008680555555555556,0,0)" xlink:href="#bO"/><use transform="matrix(0.008680555555555556,0,0,0.008680555555555556,12.986111111111112,0)" xlink:href="#bp"/><use transform="matrix(0.008680555555555556,0,0,0.008680555555555556,22.96875,0)" xlink:href="#bA"/></g><g id="A"><use transform="matrix(0.008680555555555556,0,0,0.008680555555555556,0,0)" xlink:href="#bp"/><use transform="matrix(0.008680555555555556,0,0,0.008680555555555556,9.98263888888889,0)" xlink:href="#bC"/><use transform="matrix(0.008680555555555556,0,0,0.008680555555555556,14.288194444444445,0)" xlink:href="#bq"/><use transform="matrix(0.008680555555555556,0,0,0.008680555555555556,23.671875,0)" xlink:href="#bt"/></g><g id="B"><use transform="matrix(0.008680555555555556,0,0,0.008680555555555556,0,0)" xlink:href="#bs"/><use transform="matrix(0.008680555555555556,0,0,0.008680555555555556,10.885416666666668,0)" xlink:href="#bx"/></g><g id="C"><use transform="matrix(0.008680555555555556,0,0,0.008680555555555556,0,0)" xlink:href="#bu"/><use transform="matrix(0.008680555555555556,0,0,0.008680555555555556,6.397569444444445,0)" xlink:href="#bx"/><use transform="matrix(0.008680555555555556,0,0,0.008680555555555556,16.76215277777778,0)" xlink:href="#bL"/><use transform="matrix(0.008680555555555556,0,0,0.008680555555555556,32.33506944444444,0)" xlink:href="#bt"/><use transform="matrix(0.008680555555555556,0,0,0.008680555555555556,42.64756944444444,0)" xlink:href="#bE"/><use transform="matrix(0.008680555555555556,0,0,0.008680555555555556,52.291666666666664,0)" xlink:href="#bx"/><use transform="matrix(0.008680555555555556,0,0,0.008680555555555556,62.65625,0)" xlink:href="#bv"/></g><path d="M458 0L52-1490h194c108 439 233 855 324 1313 92-459 221-873 331-1313h216c110 438 234 854 330 1307 92-455 216-869 323-1307h196L1558 0h-221l-256-944c-26-95-50-200-73-331-22 122-44 223-73 331L680 0H458" id="bP"/><g id="D"><use transform="matrix(0.008680555555555556,0,0,0.008680555555555556,0,0)" xlink:href="#bP"/><use transform="matrix(0.008680555555555556,0,0,0.008680555555555556,16.614583333333332,0)" xlink:href="#bx"/><use transform="matrix(0.008680555555555556,0,0,0.008680555555555556,27.15277777777778,0)" xlink:href="#bp"/><use transform="matrix(0.008680555555555556,0,0,0.008680555555555556,37.13541666666667,0)" xlink:href="#bB"/><use transform="matrix(0.008680555555555556,0,0,0.008680555555555556,42.95138888888889,0)" xlink:href="#br"/><use transform="matrix(0.008680555555555556,0,0,0.008680555555555556,53.46354166666667,0)" xlink:href="#bx"/><use transform="matrix(0.008680555555555556,0,0,0.008680555555555556,63.828125000000014,0)" xlink:href="#bu"/></g><g id="E"><use transform="matrix(0.008680555555555556,0,0,0.008680555555555556,0,0)" xlink:href="#bO"/><use transform="matrix(0.008680555555555556,0,0,0.008680555555555556,12.986111111111112,0)" xlink:href="#bp"/><use transform="matrix(0.008680555555555556,0,0,0.008680555555555556,22.96875,0)" xlink:href="#bu"/><use transform="matrix(0.008680555555555556,0,0,0.008680555555555556,29.366319444444443,0)" xlink:href="#bv"/><use transform="matrix(0.008680555555555556,0,0,0.008680555555555556,40.251736111111114,0)" xlink:href="#bq"/></g><path d="M678-1118v154H420V0H240v-964H20v-154h220v-149c0-194 155-293 318-293 85 0 141 18 168 30l-50 154c-19-6-47-17-97-17-111 0-159 58-159 166v109h258" id="bQ"/><g id="F"><use transform="matrix(0.008680555555555556,0,0,0.008680555555555556,0,0)" xlink:href="#bQ"/><use transform="matrix(0.008680555555555556,0,0,0.008680555555555556,6.0590277777777795,0)" xlink:href="#bt"/><use transform="matrix(0.008680555555555556,0,0,0.008680555555555556,16.71875,0)" xlink:href="#bu"/></g><path d="M657 26c-323 0-524-166-541-416h195c15 169 171 246 346 246 202 0 356-106 356-265 5-203-294-238-475-293-239-73-380-191-380-389 0-252 224-419 512-419 294 0 499 171 508 396H992c-17-145-151-228-328-228-193 0-321 102-321 242 0 156 175 211 284 241l149 41c160 44 422 134 422 412 0 244-197 432-541 432" id="bR"/><path d="M692-1560L212 224H46l480-1784h166" id="bS"/><path d="M98-1322v-168h1126v168H757V0H567v-1322H98" id="bT"/><g id="G"><use transform="matrix(0.008680555555555556,0,0,0.008680555555555556,0,0)" xlink:href="#bR"/><use transform="matrix(0.008680555555555556,0,0,0.008680555555555556,11.40625,0)" xlink:href="#bp"/><use transform="matrix(0.008680555555555556,0,0,0.008680555555555556,21.38888888888889,0)" xlink:href="#bu"/><use transform="matrix(0.008680555555555556,0,0,0.008680555555555556,28.081597222222218,0)" xlink:href="#bp"/><use transform="matrix(0.008680555555555556,0,0,0.008680555555555556,38.064236111111114,0)" xlink:href="#bq"/><use transform="matrix(0.008680555555555556,0,0,0.008680555555555556,47.44791666666667,0)" xlink:href="#bt"/><use transform="matrix(0.008680555555555556,0,0,0.008680555555555556,58.10763888888889,0)" xlink:href="#bB"/><use transform="matrix(0.008680555555555556,0,0,0.008680555555555556,64.01041666666667,0)" xlink:href="#bp"/><use transform="matrix(0.008680555555555556,0,0,0.008680555555555556,73.99305555555556,0)" xlink:href="#bS"/><use transform="matrix(0.008680555555555556,0,0,0.008680555555555556,80.39930555555556,0)" xlink:href="#bT"/><use transform="matrix(0.008680555555555556,0,0,0.008680555555555556,91.875,0)" xlink:href="#br"/><use transform="matrix(0.008680555555555556,0,0,0.008680555555555556,102.38715277777777,0)" xlink:href="#bt"/><use transform="matrix(0.008680555555555556,0,0,0.008680555555555556,113.046875,0)" xlink:href="#bz"/><use transform="matrix(0.008680555555555556,0,0,0.008680555555555556,123.55902777777777,0)" xlink:href="#bq"/><use transform="matrix(0.008680555555555556,0,0,0.008680555555555556,132.94270833333331,0)" xlink:href="#bp"/><use transform="matrix(0.008680555555555556,0,0,0.008680555555555556,142.9253472222222,0)" xlink:href="#bA"/><use transform="matrix(0.008680555555555556,0,0,0.008680555555555556,153.42881944444443,0)" xlink:href="#bv"/></g><path d="M784 20c-382 0-662-292-662-764 0-473 280-766 662-766s660 293 660 766c0 472-278 764-660 764zm0-176c266 0 475-207 475-588 0-383-209-590-475-590-268 0-477 208-477 590 0 380 209 588 477 588" id="bU"/><g id="H"><use transform="matrix(0.008680555555555556,0,0,0.008680555555555556,0,0)" xlink:href="#bU"/><use transform="matrix(0.008680555555555556,0,0,0.008680555555555556,13.59375,0)" xlink:href="#bp"/><use transform="matrix(0.008680555555555556,0,0,0.008680555555555556,23.57638888888889,0)" xlink:href="#bN"/><use transform="matrix(0.008680555555555556,0,0,0.008680555555555556,33.333333333333336,0)" xlink:href="#bq"/></g><path d="M180 0v-1490h908v168H370v486h669v168H370v500h727V0H180" id="bV"/><path d="M65 0l393-574-370-544h210c88 136 192 297 267 435 67-142 176-302 264-435h206L661-564 1053 0H844c-94-144-206-310-287-458C484-308 366-142 273 0H65" id="bW"/><g id="I"><use transform="matrix(0.008680555555555556,0,0,0.008680555555555556,0,0)" xlink:href="#bV"/><use transform="matrix(0.008680555555555556,0,0,0.008680555555555556,10.68576388888889,0)" xlink:href="#bW"/><use transform="matrix(0.008680555555555556,0,0,0.008680555555555556,20.390625,0)" xlink:href="#bK"/><use transform="matrix(0.008680555555555556,0,0,0.008680555555555556,31.44965277777778,0)" xlink:href="#bp"/><use transform="matrix(0.008680555555555556,0,0,0.008680555555555556,41.43229166666667,0)" xlink:href="#bA"/><use transform="matrix(0.008680555555555556,0,0,0.008680555555555556,51.93576388888889,0)" xlink:href="#bv"/></g><g id="J"><use transform="matrix(0.008680555555555556,0,0,0.008680555555555556,0,0)" xlink:href="#bG"/><use transform="matrix(0.008680555555555556,0,0,0.008680555555555556,14.548611111111112,0)" xlink:href="#br"/><use transform="matrix(0.008680555555555556,0,0,0.008680555555555556,25.060763888888893,0)" xlink:href="#bx"/><use transform="matrix(0.008680555555555556,0,0,0.008680555555555556,35.42534722222223,0)" xlink:href="#bA"/></g><g id="K"><use transform="matrix(0.008680555555555556,0,0,0.008680555555555556,0,0)" xlink:href="#bM"/><use transform="matrix(0.008680555555555556,0,0,0.008680555555555556,10.15625,0)" xlink:href="#bC"/><use transform="matrix(0.008680555555555556,0,0,0.008680555555555556,14.461805555555555,0)" xlink:href="#bF"/><use transform="matrix(0.008680555555555556,0,0,0.008680555555555556,18.76736111111111,0)" xlink:href="#bM"/><use transform="matrix(0.008680555555555556,0,0,0.008680555555555556,28.92361111111111,0)" xlink:href="#bN"/><use transform="matrix(0.008680555555555556,0,0,0.008680555555555556,38.28125,0)" xlink:href="#bx"/><use transform="matrix(0.008680555555555556,0,0,0.008680555555555556,48.645833333333336,0)" xlink:href="#bv"/></g><g id="L"><use transform="matrix(0.008680555555555556,0,0,0.008680555555555556,0,0)" xlink:href="#bB"/><use transform="matrix(0.008680555555555556,0,0,0.008680555555555556,5.642361111111112,0)" xlink:href="#bt"/></g><g id="M"><use transform="matrix(0.008680555555555556,0,0,0.008680555555555556,0,0)" xlink:href="#bu"/><use transform="matrix(0.008680555555555556,0,0,0.008680555555555556,6.397569444444445,0)" xlink:href="#bx"/><use transform="matrix(0.008680555555555556,0,0,0.008680555555555556,16.414930555555557,0)" xlink:href="#bE"/><use transform="matrix(0.008680555555555556,0,0,0.008680555555555556,26.05902777777778,0)" xlink:href="#bx"/><use transform="matrix(0.008680555555555556,0,0,0.008680555555555556,36.59722222222222,0)" xlink:href="#bp"/><use transform="matrix(0.008680555555555556,0,0,0.008680555555555556,46.579861111111114,0)" xlink:href="#bC"/></g><path d="M626 20c-262 0-458-168-468-396h184c12 133 134 229 284 229 180 0 311-137 311-326 0-192-136-335-323-335-92 0-196 33-255 78l-178-22 88-738h784v167H429l-51 435h8c61-51 160-87 263-87 273 0 474 211 474 499 0 286-210 496-497 496" id="bX"/><use transform="matrix(0.008680555555555556,0,0,0.008680555555555556,0,0)" xlink:href="#bX" id="N"/><g id="O"><use transform="matrix(0.008680555555555556,0,0,0.008680555555555556,0,0)" xlink:href="#bv"/><use transform="matrix(0.008680555555555556,0,0,0.008680555555555556,10.885416666666668,0)" xlink:href="#bp"/><use transform="matrix(0.008680555555555556,0,0,0.008680555555555556,20.607638888888893,0)" xlink:href="#bD"/></g><g id="P"><use transform="matrix(0.008680555555555556,0,0,0.008680555555555556,0,0)" xlink:href="#bQ"/><use transform="matrix(0.008680555555555556,0,0,0.008680555555555556,6.0590277777777795,0)" xlink:href="#bt"/><use transform="matrix(0.008680555555555556,0,0,0.008680555555555556,16.71875,0)" xlink:href="#bu"/><use transform="matrix(0.008680555555555556,0,0,0.008680555555555556,23.116319444444443,0)" xlink:href="#bx"/><use transform="matrix(0.008680555555555556,0,0,0.008680555555555556,33.48090277777778,0)" xlink:href="#bM"/><use transform="matrix(0.008680555555555556,0,0,0.008680555555555556,43.81076388888889,0)" xlink:href="#bp"/><use transform="matrix(0.008680555555555556,0,0,0.008680555555555556,53.793402777777786,0)" xlink:href="#bq"/><use transform="matrix(0.008680555555555556,0,0,0.008680555555555556,63.17708333333334,0)" xlink:href="#bB"/></g><g id="Q"><use transform="matrix(0.008680555555555556,0,0,0.008680555555555556,0,0)" xlink:href="#bO"/><use transform="matrix(0.008680555555555556,0,0,0.008680555555555556,12.986111111111112,0)" xlink:href="#bC"/><use transform="matrix(0.008680555555555556,0,0,0.008680555555555556,17.291666666666668,0)" xlink:href="#bF"/><use transform="matrix(0.008680555555555556,0,0,0.008680555555555556,21.59722222222222,0)" xlink:href="#bM"/><use transform="matrix(0.008680555555555556,0,0,0.008680555555555556,31.75347222222222,0)" xlink:href="#bN"/></g><g id="R"><use transform="matrix(0.008680555555555556,0,0,0.008680555555555556,0,0)" xlink:href="#bt"/><use transform="matrix(0.008680555555555556,0,0,0.008680555555555556,10.659722222222223,0)" xlink:href="#bz"/><use transform="matrix(0.008680555555555556,0,0,0.008680555555555556,21.171875,0)" xlink:href="#bB"/><use transform="matrix(0.008680555555555556,0,0,0.008680555555555556,26.81423611111111,0)" xlink:href="#bq"/><use transform="matrix(0.008680555555555556,0,0,0.008680555555555556,36.19791666666666,0)" xlink:href="#bF"/><use transform="matrix(0.008680555555555556,0,0,0.008680555555555556,40.50347222222222,0)" xlink:href="#bv"/><use transform="matrix(0.008680555555555556,0,0,0.008680555555555556,51.388888888888886,0)" xlink:href="#bx"/></g><g id="S"><use transform="matrix(0.008680555555555556,0,0,0.008680555555555556,0,0)" xlink:href="#bt"/><use transform="matrix(0.008680555555555556,0,0,0.008680555555555556,10.659722222222223,0)" xlink:href="#bQ"/></g><g id="T"><use transform="matrix(0.008680555555555556,0,0,0.008680555555555556,0,0)" xlink:href="#bE"/><use transform="matrix(0.008680555555555556,0,0,0.008680555555555556,9.991319444444445,0)" xlink:href="#bF"/><use transform="matrix(0.008680555555555556,0,0,0.008680555555555556,14.296875,0)" xlink:href="#bx"/><use transform="matrix(0.008680555555555556,0,0,0.008680555555555556,24.34027777777778,0)" xlink:href="#bG"/></g><path d="M611 442c-248 0-391-105-460-228l146-94c47 65 117 165 314 165 178 0 307-82 307-266v-224h-17C863-141 792-18 576-18c-268 0-472-195-472-546 0-346 197-568 476-568 216 0 288 133 326 193h17v-179h175V29c0 289-215 413-487 413zm-5-620c203 0 314-146 314-390 0-237-108-403-314-403-213 0-319 180-319 403 0 230 109 390 319 390" id="bY"/><g id="U"><use transform="matrix(0.008680555555555556,0,0,0.008680555555555556,0,0)" xlink:href="#bY"/><use transform="matrix(0.008680555555555556,0,0,0.008680555555555556,10.902777777777779,0)" xlink:href="#bt"/></g><g id="V"><use transform="matrix(0.008680555555555556,0,0,0.008680555555555556,0,0)" xlink:href="#bs"/><use transform="matrix(0.008680555555555556,0,0,0.008680555555555556,11.059027777777779,0)" xlink:href="#bp"/><use transform="matrix(0.008680555555555556,0,0,0.008680555555555556,21.041666666666668,0)" xlink:href="#bM"/><use transform="matrix(0.008680555555555556,0,0,0.008680555555555556,31.197916666666668,0)" xlink:href="#bN"/></g><g id="W"><use transform="matrix(0.008680555555555556,0,0,0.008680555555555556,0,0)" xlink:href="#bv"/><use transform="matrix(0.008680555555555556,0,0,0.008680555555555556,10.885416666666668,0)" xlink:href="#bp"/><use transform="matrix(0.008680555555555556,0,0,0.008680555555555556,20.868055555555557,0)" xlink:href="#bq"/><use transform="matrix(0.008680555555555556,0,0,0.008680555555555556,30.25173611111111,0)" xlink:href="#br"/><use transform="matrix(0.008680555555555556,0,0,0.008680555555555556,40.76388888888889,0)" xlink:href="#bs"/><use transform="matrix(0.008680555555555556,0,0,0.008680555555555556,51.64930555555556,0)" xlink:href="#bt"/><use transform="matrix(0.008680555555555556,0,0,0.008680555555555556,62.48263888888889,0)" xlink:href="#bp"/><use transform="matrix(0.008680555555555556,0,0,0.008680555555555556,72.46527777777779,0)" xlink:href="#bu"/><use transform="matrix(0.008680555555555556,0,0,0.008680555555555556,78.86284722222223,0)" xlink:href="#bv"/></g><g id="X"><use transform="matrix(0.008680555555555556,0,0,0.008680555555555556,0,0)" xlink:href="#bO"/><use transform="matrix(0.008680555555555556,0,0,0.008680555555555556,12.986111111111112,0)" xlink:href="#br"/><use transform="matrix(0.008680555555555556,0,0,0.008680555555555556,23.498263888888893,0)" xlink:href="#bp"/><use transform="matrix(0.008680555555555556,0,0,0.008680555555555556,33.480902777777786,0)" xlink:href="#bB"/></g><g id="Y"><use transform="matrix(0.008680555555555556,0,0,0.008680555555555556,0,0)" xlink:href="#bJ"/><use transform="matrix(0.008680555555555556,0,0,0.008680555555555556,12.265625,0)" xlink:href="#bs"/><use transform="matrix(0.008680555555555556,0,0,0.008680555555555556,23.151041666666668,0)" xlink:href="#bF"/><use transform="matrix(0.008680555555555556,0,0,0.008680555555555556,27.456597222222218,0)" xlink:href="#bC"/><use transform="matrix(0.008680555555555556,0,0,0.008680555555555556,31.76215277777778,0)" xlink:href="#bF"/><use transform="matrix(0.008680555555555556,0,0,0.008680555555555556,36.067708333333336,0)" xlink:href="#bB"/><use transform="matrix(0.008680555555555556,0,0,0.008680555555555556,42.23090277777778,0)" xlink:href="#bD"/></g><g id="Z"><use transform="matrix(0.008680555555555556,0,0,0.008680555555555556,0,0)" xlink:href="#bq"/><use transform="matrix(0.008680555555555556,0,0,0.008680555555555556,9.383680555555555,0)" xlink:href="#bx"/><use transform="matrix(0.008680555555555556,0,0,0.008680555555555556,19.74826388888889,0)" xlink:href="#bC"/><use transform="matrix(0.008680555555555556,0,0,0.008680555555555556,24.053819444444443,0)" xlink:href="#bx"/><use transform="matrix(0.008680555555555556,0,0,0.008680555555555556,34.41840277777778,0)" xlink:href="#bM"/><use transform="matrix(0.008680555555555556,0,0,0.008680555555555556,44.57465277777778,0)" xlink:href="#bB"/></g><g id="aa"><use transform="matrix(0.008680555555555556,0,0,0.008680555555555556,0,0)" xlink:href="#bp"/><use transform="matrix(0.008680555555555556,0,0,0.008680555555555556,9.98263888888889,0)" xlink:href="#bA"/><use transform="matrix(0.008680555555555556,0,0,0.008680555555555556,20.225694444444446,0)" xlink:href="#bD"/></g><g id="ab"><use transform="matrix(0.008680555555555556,0,0,0.008680555555555556,0,0)" xlink:href="#bz"/><use transform="matrix(0.008680555555555556,0,0,0.008680555555555556,10.512152777777779,0)" xlink:href="#bq"/><use transform="matrix(0.008680555555555556,0,0,0.008680555555555556,19.895833333333336,0)" xlink:href="#bx"/><use transform="matrix(0.008680555555555556,0,0,0.008680555555555556,30.26041666666667,0)" xlink:href="#bu"/></g><g id="ac"><use transform="matrix(0.008680555555555556,0,0,0.008680555555555556,0,0)" xlink:href="#bq"/><use transform="matrix(0.008680555555555556,0,0,0.008680555555555556,9.383680555555555,0)" xlink:href="#bx"/><use transform="matrix(0.008680555555555556,0,0,0.008680555555555556,19.74826388888889,0)" xlink:href="#bA"/><use transform="matrix(0.008680555555555556,0,0,0.008680555555555556,30.25173611111111,0)" xlink:href="#bv"/></g><use transform="matrix(0.008680555555555556,0,0,0.008680555555555556,0,0)" xlink:href="#bp" id="ad"/><g id="ae"><use transform="matrix(0.008680555555555556,0,0,0.008680555555555556,0,0)" xlink:href="#bL"/><use transform="matrix(0.008680555555555556,0,0,0.008680555555555556,15.572916666666668,0)" xlink:href="#bx"/><use transform="matrix(0.008680555555555556,0,0,0.008680555555555556,25.9375,0)" xlink:href="#bq"/><use transform="matrix(0.008680555555555556,0,0,0.008680555555555556,35.32118055555556,0)" xlink:href="#bq"/><use transform="matrix(0.008680555555555556,0,0,0.008680555555555556,44.704861111111114,0)" xlink:href="#bp"/><use transform="matrix(0.008680555555555556,0,0,0.008680555555555556,54.6875,0)" xlink:href="#bY"/><use transform="matrix(0.008680555555555556,0,0,0.008680555555555556,65.59027777777777,0)" xlink:href="#bx"/></g><path d="M180 0v-1490h270l367 940c28 72 75 218 110 339 35-117 81-264 110-339l362-940h271V0h-187c2-448-5-837 7-1287-157 497-311 829-483 1287H842C666-458 514-784 354-1284c12 438 5 843 7 1284H180" id="bZ"/><g id="af"><use transform="matrix(0.008680555555555556,0,0,0.008680555555555556,0,0)" xlink:href="#bZ"/><use transform="matrix(0.008680555555555556,0,0,0.008680555555555556,16.05902777777778,0)" xlink:href="#bx"/><use transform="matrix(0.008680555555555556,0,0,0.008680555555555556,26.423611111111118,0)" xlink:href="#bq"/><use transform="matrix(0.008680555555555556,0,0,0.008680555555555556,35.80729166666667,0)" xlink:href="#bq"/><use transform="matrix(0.008680555555555556,0,0,0.008680555555555556,45.190972222222236,0)" xlink:href="#bp"/><use transform="matrix(0.008680555555555556,0,0,0.008680555555555556,55.173611111111114,0)" xlink:href="#bY"/><use transform="matrix(0.008680555555555556,0,0,0.008680555555555556,66.07638888888889,0)" xlink:href="#bx"/><use transform="matrix(0.008680555555555556,0,0,0.008680555555555556,76.44097222222221,0)" xlink:href="#bq"/></g><g id="ag"><use transform="matrix(0.008680555555555556,0,0,0.008680555555555556,0,0)" xlink:href="#bq"/><use transform="matrix(0.008680555555555556,0,0,0.008680555555555556,9.383680555555555,0)" xlink:href="#bp"/><use transform="matrix(0.008680555555555556,0,0,0.008680555555555556,19.10590277777778,0)" xlink:href="#bE"/><use transform="matrix(0.008680555555555556,0,0,0.008680555555555556,28.75,0)" xlink:href="#bx"/></g><path d="M180 0v-1490h528c311 0 458 177 458 395 0 191-114 278-244 313v14c139 9 302 137 302 371 0 225-148 397-499 397H180zm190-168h350c232 0 321-102 321-231 0-149-120-277-311-277H370v508zm0-668h328c160 0 286-101 286-255 0-129-87-231-280-231H370v486" id="ca"/><g id="ah"><use transform="matrix(0.008680555555555556,0,0,0.008680555555555556,0,0)" xlink:href="#ca"/><use transform="matrix(0.008680555555555556,0,0,0.008680555555555556,11.631944444444445,0)" xlink:href="#bp"/><use transform="matrix(0.008680555555555556,0,0,0.008680555555555556,21.614583333333336,0)" xlink:href="#bM"/><use transform="matrix(0.008680555555555556,0,0,0.008680555555555556,31.770833333333336,0)" xlink:href="#bN"/></g><g id="ai"><use transform="matrix(0.008680555555555556,0,0,0.008680555555555556,0,0)" xlink:href="#bu"/><use transform="matrix(0.008680555555555556,0,0,0.008680555555555556,6.397569444444445,0)" xlink:href="#bx"/><use transform="matrix(0.008680555555555556,0,0,0.008680555555555556,16.76215277777778,0)" xlink:href="#bB"/><use transform="matrix(0.008680555555555556,0,0,0.008680555555555556,22.578125,0)" xlink:href="#bz"/><use transform="matrix(0.008680555555555556,0,0,0.008680555555555556,33.09027777777778,0)" xlink:href="#bu"/><use transform="matrix(0.008680555555555556,0,0,0.008680555555555556,40.06076388888889,0)" xlink:href="#bA"/></g><path d="M798-719v166H144v-166h654" id="cb"/><g id="aj"><use transform="matrix(0.008680555555555556,0,0,0.008680555555555556,0,0)" xlink:href="#bT"/><use transform="matrix(0.008680555555555556,0,0,0.008680555555555556,10.086805555555555,0)" xlink:href="#bt"/><use transform="matrix(0.008680555555555556,0,0,0.008680555555555556,20.74652777777778,0)" xlink:href="#cb"/><use transform="matrix(0.008680555555555556,0,0,0.008680555555555556,28.92361111111111,0)" xlink:href="#bo"/><use transform="matrix(0.008680555555555556,0,0,0.008680555555555556,41.75347222222223,0)" xlink:href="#bt"/></g><path d="M180 0v-1490h190v1322h690V0H180" id="cc"/><g id="ak"><use transform="matrix(0.008680555555555556,0,0,0.008680555555555556,0,0)" xlink:href="#cc"/><use transform="matrix(0.008680555555555556,0,0,0.008680555555555556,10.052083333333334,0)" xlink:href="#bF"/><use transform="matrix(0.008680555555555556,0,0,0.008680555555555556,14.35763888888889,0)" xlink:href="#bq"/><use transform="matrix(0.008680555555555556,0,0,0.008680555555555556,23.741319444444443,0)" xlink:href="#bB"/></g><g id="al"><use transform="matrix(0.008680555555555556,0,0,0.008680555555555556,0,0)" xlink:href="#bo"/><use transform="matrix(0.008680555555555556,0,0,0.008680555555555556,12.829861111111112,0)" xlink:href="#bp"/><use transform="matrix(0.008680555555555556,0,0,0.008680555555555556,22.8125,0)" xlink:href="#bF"/><use transform="matrix(0.008680555555555556,0,0,0.008680555555555556,27.118055555555557,0)" xlink:href="#bC"/><use transform="matrix(0.008680555555555556,0,0,0.008680555555555556,31.51041666666667,0)" xlink:href="#bD"/></g><g id="am"><use transform="matrix(0.008680555555555556,0,0,0.008680555555555556,0,0)" xlink:href="#bE"/><use transform="matrix(0.008680555555555556,0,0,0.008680555555555556,9.991319444444445,0)" xlink:href="#bF"/><use transform="matrix(0.008680555555555556,0,0,0.008680555555555556,14.296875,0)" xlink:href="#bx"/><use transform="matrix(0.008680555555555556,0,0,0.008680555555555556,24.34027777777778,0)" xlink:href="#bG"/><use transform="matrix(0.008680555555555556,0,0,0.008680555555555556,38.88888888888889,0)" xlink:href="#bq"/></g><g id="an"><use transform="matrix(0.008680555555555556,0,0,0.008680555555555556,0,0)" xlink:href="#bB"/><use transform="matrix(0.008680555555555556,0,0,0.008680555555555556,5.815972222222222,0)" xlink:href="#br"/><use transform="matrix(0.008680555555555556,0,0,0.008680555555555556,16.328125,0)" xlink:href="#bx"/></g><g id="ao"><use transform="matrix(0.008680555555555556,0,0,0.008680555555555556,0,0)" xlink:href="#bG"/><use transform="matrix(0.008680555555555556,0,0,0.008680555555555556,14.227430555555555,0)" xlink:href="#bx"/><use transform="matrix(0.008680555555555556,0,0,0.008680555555555556,24.592013888888893,0)" xlink:href="#bx"/><use transform="matrix(0.008680555555555556,0,0,0.008680555555555556,34.95659722222223,0)" xlink:href="#bN"/></g><g id="ap"><use transform="matrix(0.008680555555555556,0,0,0.008680555555555556,0,0)" xlink:href="#bB"/><use transform="matrix(0.008680555555555556,0,0,0.008680555555555556,5.642361111111112,0)" xlink:href="#bt"/><use transform="matrix(0.008680555555555556,0,0,0.008680555555555556,16.302083333333336,0)" xlink:href="#cb"/><use transform="matrix(0.008680555555555556,0,0,0.008680555555555556,24.47916666666667,0)" xlink:href="#bv"/><use transform="matrix(0.008680555555555556,0,0,0.008680555555555556,35.36458333333334,0)" xlink:href="#bt"/><use transform="matrix(0.008680555555555556,0,0,0.008680555555555556,46.024305555555564,0)" xlink:href="#bq"/></g><g id="aq"><use transform="matrix(0.008680555555555556,0,0,0.008680555555555556,0,0)" xlink:href="#bC"/><use transform="matrix(0.008680555555555556,0,0,0.008680555555555556,4.305555555555555,0)" xlink:href="#bF"/><use transform="matrix(0.008680555555555556,0,0,0.008680555555555556,8.61111111111111,0)" xlink:href="#bq"/><use transform="matrix(0.008680555555555556,0,0,0.008680555555555556,17.994791666666664,0)" xlink:href="#bB"/></g><g id="ar"><use transform="matrix(0.008680555555555556,0,0,0.008680555555555556,0,0)" xlink:href="#bp"/><use transform="matrix(0.008680555555555556,0,0,0.008680555555555556,9.98263888888889,0)" xlink:href="#bA"/><use transform="matrix(0.008680555555555556,0,0,0.008680555555555556,20.225694444444446,0)" xlink:href="#bD"/></g><use transform="matrix(0.008680555555555556,0,0,0.008680555555555556,0,0)" xlink:href="#bp" id="as"/><g id="at"><use transform="matrix(0.008680555555555556,0,0,0.008680555555555556,0,0)" xlink:href="#bM"/><use transform="matrix(0.008680555555555556,0,0,0.008680555555555556,10.15625,0)" xlink:href="#br"/><use transform="matrix(0.008680555555555556,0,0,0.008680555555555556,20.66840277777778,0)" xlink:href="#bp"/><use transform="matrix(0.008680555555555556,0,0,0.008680555555555556,30.651041666666668,0)" xlink:href="#bB"/></g><g id="au"><use transform="matrix(0.008680555555555556,0,0,0.008680555555555556,0,0)" xlink:href="#bJ"/><use transform="matrix(0.008680555555555556,0,0,0.008680555555555556,12.265625,0)" xlink:href="#bv"/><use transform="matrix(0.008680555555555556,0,0,0.008680555555555556,23.151041666666668,0)" xlink:href="#bv"/></g><g id="av"><use transform="matrix(0.008680555555555556,0,0,0.008680555555555556,0,0)" xlink:href="#bB"/><use transform="matrix(0.008680555555555556,0,0,0.008680555555555556,5.902777777777778,0)" xlink:href="#bp"/><use transform="matrix(0.008680555555555556,0,0,0.008680555555555556,15.885416666666668,0)" xlink:href="#bq"/><use transform="matrix(0.008680555555555556,0,0,0.008680555555555556,25.269097222222225,0)" xlink:href="#bN"/><use transform="matrix(0.008680555555555556,0,0,0.008680555555555556,35.026041666666664,0)" xlink:href="#bq"/></g><g id="aw"><use transform="matrix(0.008680555555555556,0,0,0.008680555555555556,0,0)" xlink:href="#bQ"/><use transform="matrix(0.008680555555555556,0,0,0.008680555555555556,6.0590277777777795,0)" xlink:href="#bt"/><use transform="matrix(0.008680555555555556,0,0,0.008680555555555556,16.71875,0)" xlink:href="#bu"/></g><g id="ax"><use transform="matrix(0.008680555555555556,0,0,0.008680555555555556,0,0)" xlink:href="#bv"/><use transform="matrix(0.008680555555555556,0,0,0.008680555555555556,10.885416666666668,0)" xlink:href="#bp"/><use transform="matrix(0.008680555555555556,0,0,0.008680555555555556,20.607638888888893,0)" xlink:href="#bD"/><use transform="matrix(0.008680555555555556,0,0,0.008680555555555556,29.592013888888893,0)" xlink:href="#bS"/><use transform="matrix(0.008680555555555556,0,0,0.008680555555555556,35.99826388888889,0)" xlink:href="#bB"/><use transform="matrix(0.008680555555555556,0,0,0.008680555555555556,41.814236111111114,0)" xlink:href="#bF"/><use transform="matrix(0.008680555555555556,0,0,0.008680555555555556,46.11979166666667,0)" xlink:href="#bL"/><use transform="matrix(0.008680555555555556,0,0,0.008680555555555556,61.69270833333334,0)" xlink:href="#bx"/></g><g id="ay"><use transform="matrix(0.008680555555555556,0,0,0.008680555555555556,0,0)" xlink:href="#bu"/><use transform="matrix(0.008680555555555556,0,0,0.008680555555555556,6.397569444444445,0)" xlink:href="#bx"/><use transform="matrix(0.008680555555555556,0,0,0.008680555555555556,16.76215277777778,0)" xlink:href="#bB"/><use transform="matrix(0.008680555555555556,0,0,0.008680555555555556,22.578125,0)" xlink:href="#bz"/><use transform="matrix(0.008680555555555556,0,0,0.008680555555555556,33.09027777777778,0)" xlink:href="#bu"/><use transform="matrix(0.008680555555555556,0,0,0.008680555555555556,40.06076388888889,0)" xlink:href="#bA"/></g><g id="az"><use transform="matrix(0.008680555555555556,0,0,0.008680555555555556,0,0)" xlink:href="#bv"/><use transform="matrix(0.008680555555555556,0,0,0.008680555555555556,10.885416666666668,0)" xlink:href="#bp"/><use transform="matrix(0.008680555555555556,0,0,0.008680555555555556,20.868055555555557,0)" xlink:href="#bq"/><use transform="matrix(0.008680555555555556,0,0,0.008680555555555556,30.25173611111111,0)" xlink:href="#br"/><use transform="matrix(0.008680555555555556,0,0,0.008680555555555556,40.76388888888889,0)" xlink:href="#bs"/><use transform="matrix(0.008680555555555556,0,0,0.008680555555555556,51.64930555555556,0)" xlink:href="#bt"/><use transform="matrix(0.008680555555555556,0,0,0.008680555555555556,62.48263888888889,0)" xlink:href="#bp"/><use transform="matrix(0.008680555555555556,0,0,0.008680555555555556,72.46527777777779,0)" xlink:href="#bu"/><use transform="matrix(0.008680555555555556,0,0,0.008680555555555556,78.86284722222223,0)" xlink:href="#bv"/></g><path d="M120-303v-155l652-1032h231v1020h202v167h-202V0H821v-303H120zm702-167v-782h-12L323-482v12h499" id="cd"/><path d="M646 20c-332 0-524-278-524-764 0-483 194-766 524-766s524 283 524 766c0 485-191 764-524 764zm0-166c218 0 341-220 341-598 0-380-123-601-341-601s-341 222-341 601c0 378 123 598 341 598" id="ce"/><g id="aB"><use transform="matrix(0.008680555555555556,0,0,0.008680555555555556,0,0)" xlink:href="#cd"/><use transform="matrix(0.008680555555555556,0,0,0.008680555555555556,11.484375,0)" xlink:href="#ce"/><use transform="matrix(0.008680555555555556,0,0,0.008680555555555556,22.69965277777778,0)" xlink:href="#cd"/></g><path d="M180 0v-1490h510c348 0 508 209 508 474 0 266-160 477-507 477H370V0H180zm190-706h312c236 0 327-133 327-310 0-176-91-307-329-307H370v617" id="cf"/><g id="aC"><use transform="matrix(0.008680555555555556,0,0,0.008680555555555556,0,0)" xlink:href="#cf"/><use transform="matrix(0.008680555555555556,0,0,0.008680555555555556,11.354166666666668,0)" xlink:href="#bp"/><use transform="matrix(0.008680555555555556,0,0,0.008680555555555556,21.336805555555557,0)" xlink:href="#bY"/><use transform="matrix(0.008680555555555556,0,0,0.008680555555555556,32.239583333333336,0)" xlink:href="#bx"/></g><g id="aD"><use transform="matrix(0.008680555555555556,0,0,0.008680555555555556,0,0)" xlink:href="#bv"/><use transform="matrix(0.008680555555555556,0,0,0.008680555555555556,10.885416666666668,0)" xlink:href="#bp"/><use transform="matrix(0.008680555555555556,0,0,0.008680555555555556,20.868055555555557,0)" xlink:href="#bq"/><use transform="matrix(0.008680555555555556,0,0,0.008680555555555556,30.25173611111111,0)" xlink:href="#br"/><use transform="matrix(0.008680555555555556,0,0,0.008680555555555556,40.76388888888889,0)" xlink:href="#bs"/><use transform="matrix(0.008680555555555556,0,0,0.008680555555555556,51.64930555555556,0)" xlink:href="#bt"/><use transform="matrix(0.008680555555555556,0,0,0.008680555555555556,62.48263888888889,0)" xlink:href="#bp"/><use transform="matrix(0.008680555555555556,0,0,0.008680555555555556,72.46527777777779,0)" xlink:href="#bu"/><use transform="matrix(0.008680555555555556,0,0,0.008680555555555556,78.86284722222223,0)" xlink:href="#bv"/></g><g id="aE"><use transform="matrix(0.008680555555555556,0,0,0.008680555555555556,0,0)" xlink:href="#bs"/><use transform="matrix(0.008680555555555556,0,0,0.008680555555555556,10.885416666666668,0)" xlink:href="#bz"/><use transform="matrix(0.008680555555555556,0,0,0.008680555555555556,21.397569444444446,0)" xlink:href="#bB"/><use transform="matrix(0.008680555555555556,0,0,0.008680555555555556,26.77951388888889,0)" xlink:href="#bB"/><use transform="matrix(0.008680555555555556,0,0,0.008680555555555556,32.421875,0)" xlink:href="#bt"/><use transform="matrix(0.008680555555555556,0,0,0.008680555555555556,43.08159722222222,0)" xlink:href="#bA"/></g><path d="M763 24c-353 0-583-224-583-531v-983h190v968c0 214 149 370 393 370 243 0 391-156 391-370v-968h190v983c0 307-230 531-581 531" id="cg"/><g id="aF"><use transform="matrix(0.010850694444444444,0,0,0.010850694444444444,0,0)" xlink:href="#cg"/><use transform="matrix(0.010850694444444444,0,0,0.010850694444444444,16.536458333333332,0)" xlink:href="#bq"/><use transform="matrix(0.010850694444444444,0,0,0.010850694444444444,28.266059027777775,0)" xlink:href="#bx"/><use transform="matrix(0.010850694444444444,0,0,0.010850694444444444,41.22178819444444,0)" xlink:href="#bu"/></g><g id="aG"><use transform="matrix(0.010850694444444444,0,0,0.010850694444444444,0,0)" xlink:href="#bE"/><use transform="matrix(0.010850694444444444,0,0,0.010850694444444444,12.489149305555555,0)" xlink:href="#bF"/><use transform="matrix(0.010850694444444444,0,0,0.010850694444444444,17.87109375,0)" xlink:href="#bq"/><use transform="matrix(0.010850694444444444,0,0,0.010850694444444444,29.600694444444443,0)" xlink:href="#bF"/><use transform="matrix(0.010850694444444444,0,0,0.010850694444444444,34.982638888888886,0)" xlink:href="#bB"/><use transform="matrix(0.010850694444444444,0,0,0.010850694444444444,42.03559027777778,0)" xlink:href="#bq"/></g><path d="M789 20c-398 0-667-293-667-764 0-473 273-766 655-766 315 0 558 198 612 487h-196c-61-191-204-311-415-311-262 0-471 207-471 590 0 380 208 588 482 588 249 0 420-165 425-427H828v-166h572v163c0 370-256 606-611 606" id="ch"/><g id="aH"><use transform="matrix(0.010850694444444444,0,0,0.010850694444444444,0,0)" xlink:href="#ch"/><use transform="matrix(0.010850694444444444,0,0,0.010850694444444444,16.57986111111111,0)" xlink:href="#bu"/><use transform="matrix(0.010850694444444444,0,0,0.010850694444444444,24.94574652777778,0)" xlink:href="#bp"/><use transform="matrix(0.010850694444444444,0,0,0.010850694444444444,37.424045138888886,0)" xlink:href="#bA"/><use transform="matrix(0.010850694444444444,0,0,0.010850694444444444,50.553385416666664,0)" xlink:href="#bv"/><use transform="matrix(0.010850694444444444,0,0,0.010850694444444444,64.16015625,0)" xlink:href="#bZ"/><use transform="matrix(0.010850694444444444,0,0,0.010850694444444444,84.23394097222223,0)" xlink:href="#bp"/><use transform="matrix(0.010850694444444444,0,0,0.010850694444444444,96.71223958333334,0)" xlink:href="#bA"/><use transform="matrix(0.010850694444444444,0,0,0.010850694444444444,109.84157986111111,0)" xlink:href="#bp"/><use transform="matrix(0.010850694444444444,0,0,0.010850694444444444,122.31987847222224,0)" xlink:href="#bY"/><use transform="matrix(0.010850694444444444,0,0,0.010850694444444444,135.94835069444446,0)" xlink:href="#bx"/><use transform="matrix(0.010850694444444444,0,0,0.010850694444444444,148.90407986111111,0)" xlink:href="#bu"/></g><g id="aJ"><use transform="matrix(0.010850694444444444,0,0,0.010850694444444444,0,0)" xlink:href="#cc"/><use transform="matrix(0.010850694444444444,0,0,0.010850694444444444,12.565104166666666,0)" xlink:href="#bt"/><use transform="matrix(0.010850694444444444,0,0,0.010850694444444444,25.889756944444443,0)" xlink:href="#bY"/><use transform="matrix(0.010850694444444444,0,0,0.010850694444444444,39.518229166666664,0)" xlink:href="#bF"/><use transform="matrix(0.010850694444444444,0,0,0.010850694444444444,44.90017361111111,0)" xlink:href="#bA"/><use transform="matrix(0.010850694444444444,0,0,0.010850694444444444,58.029513888888886,0)" xlink:href="#bS"/><use transform="matrix(0.010850694444444444,0,0,0.010850694444444444,66.03732638888889,0)" xlink:href="#bR"/><use transform="matrix(0.010850694444444444,0,0,0.010850694444444444,80.29513888888889,0)" xlink:href="#bF"/><use transform="matrix(0.010850694444444444,0,0,0.010850694444444444,85.67708333333333,0)" xlink:href="#bY"/><use transform="matrix(0.010850694444444444,0,0,0.010850694444444444,99.30555555555556,0)" xlink:href="#bA"/><use transform="matrix(0.010850694444444444,0,0,0.010850694444444444,112.43489583333331,0)" xlink:href="#bz"/><use transform="matrix(0.010850694444444444,0,0,0.010850694444444444,125.57508680555556,0)" xlink:href="#bK"/></g><use transform="matrix(0.010850694444444444,0,0,0.010850694444444444,0,0)" xlink:href="#bH" id="aK"/><g id="aL"><use transform="matrix(0.010850694444444444,0,0,0.010850694444444444,0,0)" xlink:href="#bR"/><use transform="matrix(0.010850694444444444,0,0,0.010850694444444444,14.2578125,0)" xlink:href="#bF"/><use transform="matrix(0.010850694444444444,0,0,0.010850694444444444,19.639756944444443,0)" xlink:href="#bY"/><use transform="matrix(0.010850694444444444,0,0,0.010850694444444444,33.268229166666664,0)" xlink:href="#bA"/></g><g id="aM"><use transform="matrix(0.010850694444444444,0,0,0.010850694444444444,0,0)" xlink:href="#bz"/><use transform="matrix(0.010850694444444444,0,0,0.010850694444444444,13.140190972222221,0)" xlink:href="#bK"/></g><g id="aN"><use transform="matrix(0.010850694444444444,0,0,0.010850694444444444,0,0)" xlink:href="#bt"/><use transform="matrix(0.010850694444444444,0,0,0.010850694444444444,13.324652777777777,0)" xlink:href="#bu"/></g><g id="aO"><use transform="matrix(0.010850694444444444,0,0,0.010850694444444444,0,0)" xlink:href="#bC"/><use transform="matrix(0.010850694444444444,0,0,0.010850694444444444,5.381944444444445,0)" xlink:href="#bt"/><use transform="matrix(0.010850694444444444,0,0,0.010850694444444444,18.70659722222222,0)" xlink:href="#bY"/></g><g id="aP"><use transform="matrix(0.010850694444444444,0,0,0.010850694444444444,0,0)" xlink:href="#bF"/><use transform="matrix(0.010850694444444444,0,0,0.010850694444444444,5.381944444444445,0)" xlink:href="#bA"/></g><g id="aQ"><use transform="matrix(0.010850694444444444,0,0,0.010850694444444444,0,0)" xlink:href="#bG"/><use transform="matrix(0.010850694444444444,0,0,0.010850694444444444,18.18576388888889,0)" xlink:href="#bF"/><use transform="matrix(0.010850694444444444,0,0,0.010850694444444444,23.567708333333336,0)" xlink:href="#bB"/><use transform="matrix(0.010850694444444444,0,0,0.010850694444444444,30.837673611111114,0)" xlink:href="#br"/></g><g id="aR"><use transform="matrix(0.010850694444444444,0,0,0.010850694444444444,0,0)" xlink:href="#ch"/><use transform="matrix(0.010850694444444444,0,0,0.010850694444444444,16.57986111111111,0)" xlink:href="#bt"/><use transform="matrix(0.010850694444444444,0,0,0.010850694444444444,29.90451388888889,0)" xlink:href="#bt"/><use transform="matrix(0.010850694444444444,0,0,0.010850694444444444,43.229166666666664,0)" xlink:href="#bY"/><use transform="matrix(0.010850694444444444,0,0,0.010850694444444444,56.857638888888886,0)" xlink:href="#bC"/><use transform="matrix(0.010850694444444444,0,0,0.010850694444444444,62.23958333333333,0)" xlink:href="#bx"/><use transform="matrix(0.010850694444444444,0,0,0.010850694444444444,75.1953125,0)" xlink:href="#bS"/><use transform="matrix(0.010850694444444444,0,0,0.010850694444444444,83.203125,0)" xlink:href="#bV"/><use transform="matrix(0.010850694444444444,0,0,0.010850694444444444,96.56032986111111,0)" xlink:href="#bL"/><use transform="matrix(0.010850694444444444,0,0,0.010850694444444444,116.02647569444444,0)" xlink:href="#bp"/><use transform="matrix(0.010850694444444444,0,0,0.010850694444444444,128.50477430555554,0)" xlink:href="#bF"/><use transform="matrix(0.010850694444444444,0,0,0.010850694444444444,133.88671875,0)" xlink:href="#bC"/></g><g id="aS"><use transform="matrix(0.010850694444444444,0,0,0.010850694444444444,0,0)" xlink:href="#bw"/><use transform="matrix(0.010850694444444444,0,0,0.010850694444444444,12.239583333333332,0)" xlink:href="#bt"/><use transform="matrix(0.010850694444444444,0,0,0.010850694444444444,25.564236111111104,0)" xlink:href="#bu"/><use transform="matrix(0.010850694444444444,0,0,0.010850694444444444,33.561197916666664,0)" xlink:href="#bY"/><use transform="matrix(0.010850694444444444,0,0,0.010850694444444444,47.189670138888886,0)" xlink:href="#bt"/><use transform="matrix(0.010850694444444444,0,0,0.010850694444444444,60.514322916666664,0)" xlink:href="#bB"/></g><g id="aT"><use transform="matrix(0.010850694444444444,0,0,0.010850694444444444,0,0)" xlink:href="#bK"/><use transform="matrix(0.010850694444444444,0,0,0.010850694444444444,13.823784722222221,0)" xlink:href="#bp"/><use transform="matrix(0.010850694444444444,0,0,0.010850694444444444,26.302083333333332,0)" xlink:href="#bq"/><use transform="matrix(0.010850694444444444,0,0,0.010850694444444444,38.03168402777778,0)" xlink:href="#bq"/><use transform="matrix(0.010850694444444444,0,0,0.010850694444444444,49.76128472222222,0)" xlink:href="#bG"/><use transform="matrix(0.010850694444444444,0,0,0.010850694444444444,67.54557291666667,0)" xlink:href="#bt"/><use transform="matrix(0.010850694444444444,0,0,0.010850694444444444,80.87022569444444,0)" xlink:href="#bu"/><use transform="matrix(0.010850694444444444,0,0,0.010850694444444444,88.8671875,0)" xlink:href="#bv"/></g><g id="aU"><use transform="matrix(0.010850694444444444,0,0,0.010850694444444444,0,0)" xlink:href="#bs"/><use transform="matrix(0.010850694444444444,0,0,0.010850694444444444,13.606770833333332,0)" xlink:href="#bz"/><use transform="matrix(0.010850694444444444,0,0,0.010850694444444444,26.746961805555554,0)" xlink:href="#bB"/><use transform="matrix(0.010850694444444444,0,0,0.010850694444444444,33.47439236111111,0)" xlink:href="#bB"/><use transform="matrix(0.010850694444444444,0,0,0.010850694444444444,40.52734375,0)" xlink:href="#bt"/><use transform="matrix(0.010850694444444444,0,0,0.010850694444444444,53.85199652777778,0)" xlink:href="#bA"/></g><g id="aV"><use transform="matrix(0.010850694444444444,0,0,0.010850694444444444,0,0)" xlink:href="#bq"/><use transform="matrix(0.010850694444444444,0,0,0.010850694444444444,11.729600694444445,0)" xlink:href="#bx"/><use transform="matrix(0.010850694444444444,0,0,0.010850694444444444,24.68532986111111,0)" xlink:href="#bA"/><use transform="matrix(0.010850694444444444,0,0,0.010850694444444444,37.814670138888886,0)" xlink:href="#bv"/><use transform="matrix(0.010850694444444444,0,0,0.010850694444444444,51.42144097222221,0)" xlink:href="#bq"/></g><g id="aW"><use transform="matrix(0.010850694444444444,0,0,0.010850694444444444,0,0)" xlink:href="#bu"/><use transform="matrix(0.010850694444444444,0,0,0.010850694444444444,7.996961805555555,0)" xlink:href="#bx"/><use transform="matrix(0.010850694444444444,0,0,0.010850694444444444,20.95269097222222,0)" xlink:href="#bq"/><use transform="matrix(0.010850694444444444,0,0,0.010850694444444444,32.682291666666664,0)" xlink:href="#bx"/><use transform="matrix(0.010850694444444444,0,0,0.010850694444444444,45.63802083333333,0)" xlink:href="#bB"/></g><g id="aX"><use transform="matrix(0.010850694444444444,0,0,0.010850694444444444,0,0)" xlink:href="#bx"/><use transform="matrix(0.010850694444444444,0,0,0.010850694444444444,12.955729166666666,0)" xlink:href="#bL"/><use transform="matrix(0.010850694444444444,0,0,0.010850694444444444,32.421875,0)" xlink:href="#bp"/><use transform="matrix(0.010850694444444444,0,0,0.010850694444444444,44.90017361111111,0)" xlink:href="#bF"/><use transform="matrix(0.010850694444444444,0,0,0.010850694444444444,50.28211805555556,0)" xlink:href="#bC"/></g><g id="ba"><use transform="matrix(0.010850694444444444,0,0,0.010850694444444444,0,0)" xlink:href="#bJ"/><use transform="matrix(0.010850694444444444,0,0,0.010850694444444444,15.33203125,0)" xlink:href="#bz"/><use transform="matrix(0.010850694444444444,0,0,0.010850694444444444,28.47222222222222,0)" xlink:href="#bB"/><use transform="matrix(0.010850694444444444,0,0,0.010850694444444444,35.7421875,0)" xlink:href="#br"/><use transform="matrix(0.010850694444444444,0,0,0.010850694444444444,48.88237847222222,0)" xlink:href="#bx"/><use transform="matrix(0.010850694444444444,0,0,0.010850694444444444,61.838107638888886,0)" xlink:href="#bA"/><use transform="matrix(0.010850694444444444,0,0,0.010850694444444444,74.96744791666666,0)" xlink:href="#bB"/><use transform="matrix(0.010850694444444444,0,0,0.010850694444444444,82.23741319444443,0)" xlink:href="#bF"/><use transform="matrix(0.010850694444444444,0,0,0.010850694444444444,87.61935763888887,0)" xlink:href="#bM"/><use transform="matrix(0.010850694444444444,0,0,0.010850694444444444,100.53168402777776,0)" xlink:href="#bp"/><use transform="matrix(0.010850694444444444,0,0,0.010850694444444444,113.00998263888887,0)" xlink:href="#bB"/><use transform="matrix(0.010850694444444444,0,0,0.010850694444444444,120.27994791666664,0)" xlink:href="#bF"/><use transform="matrix(0.010850694444444444,0,0,0.010850694444444444,125.66189236111109,0)" xlink:href="#bt"/><use transform="matrix(0.010850694444444444,0,0,0.010850694444444444,138.98654513888886,0)" xlink:href="#bA"/></g><g id="bb"><use transform="matrix(0.010850694444444444,0,0,0.010850694444444444,0,0)" xlink:href="#bK"/><use transform="matrix(0.010850694444444444,0,0,0.010850694444444444,13.823784722222221,0)" xlink:href="#bp"/><use transform="matrix(0.010850694444444444,0,0,0.010850694444444444,26.302083333333332,0)" xlink:href="#bq"/><use transform="matrix(0.010850694444444444,0,0,0.010850694444444444,38.03168402777778,0)" xlink:href="#bq"/><use transform="matrix(0.010850694444444444,0,0,0.010850694444444444,49.76128472222222,0)" xlink:href="#bx"/><use transform="matrix(0.010850694444444444,0,0,0.010850694444444444,62.717013888888886,0)" xlink:href="#bq"/></g><g id="bc"><use transform="matrix(0.010850694444444444,0,0,0.010850694444444444,0,0)" xlink:href="#ca"/><use transform="matrix(0.010850694444444444,0,0,0.010850694444444444,14.539930555555555,0)" xlink:href="#bp"/><use transform="matrix(0.010850694444444444,0,0,0.010850694444444444,27.018229166666664,0)" xlink:href="#bM"/><use transform="matrix(0.010850694444444444,0,0,0.010850694444444444,39.713541666666664,0)" xlink:href="#bN"/></g><g id="bd"><use transform="matrix(0.010850694444444444,0,0,0.010850694444444444,0,0)" xlink:href="#bs"/><use transform="matrix(0.010850694444444444,0,0,0.010850694444444444,13.606770833333332,0)" xlink:href="#bz"/><use transform="matrix(0.010850694444444444,0,0,0.010850694444444444,26.746961805555554,0)" xlink:href="#bB"/><use transform="matrix(0.010850694444444444,0,0,0.010850694444444444,33.47439236111111,0)" xlink:href="#bB"/><use transform="matrix(0.010850694444444444,0,0,0.010850694444444444,40.52734375,0)" xlink:href="#bt"/><use transform="matrix(0.010850694444444444,0,0,0.010850694444444444,53.85199652777778,0)" xlink:href="#bA"/></g><path d="M370-1490V0H180v-1490h190" id="ci"/><g id="be"><use transform="matrix(0.010850694444444444,0,0,0.010850694444444444,0,0)" xlink:href="#ci"/><use transform="matrix(0.010850694444444444,0,0,0.010850694444444444,5.967881944444445,0)" xlink:href="#bA"/><use transform="matrix(0.010850694444444444,0,0,0.010850694444444444,18.77170138888889,0)" xlink:href="#bE"/><use transform="matrix(0.010850694444444444,0,0,0.010850694444444444,31.15234375,0)" xlink:href="#bp"/><use transform="matrix(0.010850694444444444,0,0,0.010850694444444444,43.630642361111114,0)" xlink:href="#bC"/><use transform="matrix(0.010850694444444444,0,0,0.010850694444444444,49.01258680555556,0)" xlink:href="#bF"/><use transform="matrix(0.010850694444444444,0,0,0.010850694444444444,54.39453125,0)" xlink:href="#bv"/></g><g id="bf"><use transform="matrix(0.010850694444444444,0,0,0.010850694444444444,0,0)" xlink:href="#bF"/><use transform="matrix(0.010850694444444444,0,0,0.010850694444444444,5.381944444444445,0)" xlink:href="#bA"/><use transform="matrix(0.010850694444444444,0,0,0.010850694444444444,18.51128472222222,0)" xlink:href="#bK"/><use transform="matrix(0.010850694444444444,0,0,0.010850694444444444,32.11805555555556,0)" xlink:href="#bz"/><use transform="matrix(0.010850694444444444,0,0,0.010850694444444444,45.25824652777778,0)" xlink:href="#bB"/></g><g id="bg"><use transform="matrix(0.010850694444444444,0,0,0.010850694444444444,0,0)" xlink:href="#bp"/><use transform="matrix(0.010850694444444444,0,0,0.010850694444444444,12.47829861111111,0)" xlink:href="#bB"/></g><g id="bh"><use transform="matrix(0.010850694444444444,0,0,0.010850694444444444,0,0)" xlink:href="#bB"/><use transform="matrix(0.010850694444444444,0,0,0.010850694444444444,7.269965277777778,0)" xlink:href="#br"/><use transform="matrix(0.010850694444444444,0,0,0.010850694444444444,20.41015625,0)" xlink:href="#bx"/></g><g id="bi"><use transform="matrix(0.010850694444444444,0,0,0.010850694444444444,0,0)" xlink:href="#bx"/><use transform="matrix(0.010850694444444444,0,0,0.010850694444444444,12.955729166666666,0)" xlink:href="#bA"/><use transform="matrix(0.010850694444444444,0,0,0.010850694444444444,26.085069444444443,0)" xlink:href="#bv"/></g><g id="bj"><use transform="matrix(0.010850694444444444,0,0,0.010850694444444444,0,0)" xlink:href="#bt"/><use transform="matrix(0.010850694444444444,0,0,0.010850694444444444,13.324652777777777,0)" xlink:href="#bQ"/></g><g id="bk"><use transform="matrix(0.010850694444444444,0,0,0.010850694444444444,0,0)" xlink:href="#bC"/><use transform="matrix(0.010850694444444444,0,0,0.010850694444444444,5.381944444444445,0)" xlink:href="#bF"/><use transform="matrix(0.010850694444444444,0,0,0.010850694444444444,10.76388888888889,0)" xlink:href="#bA"/><use transform="matrix(0.010850694444444444,0,0,0.010850694444444444,23.893229166666664,0)" xlink:href="#bN"/></g><g id="bl"><use transform="matrix(0.010850694444444444,0,0,0.010850694444444444,0,0)" xlink:href="#cc"/><use transform="matrix(0.010850694444444444,0,0,0.010850694444444444,12.565104166666666,0)" xlink:href="#bt"/><use transform="matrix(0.010850694444444444,0,0,0.010850694444444444,25.889756944444443,0)" xlink:href="#bY"/><use transform="matrix(0.010850694444444444,0,0,0.010850694444444444,39.518229166666664,0)" xlink:href="#bt"/><use transform="matrix(0.010850694444444444,0,0,0.010850694444444444,52.84288194444444,0)" xlink:href="#bz"/><use transform="matrix(0.010850694444444444,0,0,0.010850694444444444,65.98307291666666,0)" xlink:href="#bB"/></g><g id="bm"><use transform="matrix(0.010850694444444444,0,0,0.010850694444444444,0,0)" xlink:href="#bs"/><use transform="matrix(0.010850694444444444,0,0,0.010850694444444444,13.606770833333332,0)" xlink:href="#bz"/><use transform="matrix(0.010850694444444444,0,0,0.010850694444444444,26.746961805555554,0)" xlink:href="#bB"/><use transform="matrix(0.010850694444444444,0,0,0.010850694444444444,33.47439236111111,0)" xlink:href="#bB"/><use transform="matrix(0.010850694444444444,0,0,0.010850694444444444,40.52734375,0)" xlink:href="#bt"/><use transform="matrix(0.010850694444444444,0,0,0.010850694444444444,53.85199652777778,0)" xlink:href="#bA"/></g><g id="bn"><use transform="matrix(0.010850694444444444,0,0,0.010850694444444444,0,0)" xlink:href="#br"/><use transform="matrix(0.010850694444444444,0,0,0.010850694444444444,13.140190972222221,0)" xlink:href="#bx"/><use transform="matrix(0.010850694444444444,0,0,0.010850694444444444,26.31293402777778,0)" xlink:href="#bp"/><use transform="matrix(0.010850694444444444,0,0,0.010850694444444444,38.791232638888886,0)" xlink:href="#bv"/><use transform="matrix(0.010850694444444444,0,0,0.010850694444444444,52.39800347222221,0)" xlink:href="#bx"/><use transform="matrix(0.010850694444444444,0,0,0.010850694444444444,65.35373263888889,0)" xlink:href="#bu"/></g></defs></g></svg>